%FSLAX45Y45*%
G04 Gerber Fmt 4.5, Leading zero omitted, Abs format (unit mm)*
G04 Created by KiCad (PCBNEW 5.1.10) date 2021-06-22 00:27:21*
%MOMM*%
%LPD*%
G01*
G04 APERTURE LIST*
%TA.AperFunction,Profile*%
%ADD10C,0.050000*%
%TD*%
%ADD11C,0.200000*%
%ADD12C,0.300000*%
G04 APERTURE END LIST*
D10*
X10922000Y-9652000D02*
X10922000Y-7366000D01*
X16002000Y-9652000D02*
X10922000Y-9652000D01*
X16002000Y-7366000D02*
X16002000Y-9652000D01*
X10922000Y-7366000D02*
X16002000Y-7366000D01*
D11*
X12189100Y-8371150D02*
X12359100Y-8541150D01*
X12359100Y-8371150D02*
X12189100Y-8541150D01*
X13205100Y-8371150D02*
X13375100Y-8541150D01*
X13375100Y-8371150D02*
X13205100Y-8541150D01*
X14209100Y-8371150D02*
X14379100Y-8541150D01*
X14379100Y-8371150D02*
X14209100Y-8541150D01*
X15225100Y-8371150D02*
X15395100Y-8541150D01*
X15395100Y-8371150D02*
X15225100Y-8541150D01*
X12953900Y-8959850D02*
G75*
G03*
X12953900Y-8959850I-165000J0D01*
G01*
X12633900Y-8874850D02*
X12633900Y-9044850D01*
X12943900Y-8874850D02*
X12943900Y-9044850D01*
X12633900Y-9044850D02*
G75*
G03*
X12943900Y-9044850I155000J0D01*
G01*
X12943900Y-8874850D02*
G75*
G03*
X12633900Y-8874850I-155000J0D01*
G01*
X14979550Y-8953500D02*
G75*
G03*
X14979550Y-8953500I-165000J0D01*
G01*
X14659550Y-8868500D02*
X14659550Y-9038500D01*
X14969550Y-8868500D02*
X14969550Y-9038500D01*
X14659550Y-9038500D02*
G75*
G03*
X14969550Y-9038500I155000J0D01*
G01*
X14969550Y-8868500D02*
G75*
G03*
X14659550Y-8868500I-155000J0D01*
G01*
X12782100Y-8256150D02*
X12782100Y-8656150D01*
X12582100Y-8456150D02*
X12982100Y-8456150D01*
X14802100Y-8256150D02*
X14802100Y-8656150D01*
X14602100Y-8456150D02*
X15002100Y-8456150D01*
D12*
X11205928Y-10120214D02*
X11205928Y-9820214D01*
X11277357Y-9820214D01*
X11320214Y-9834500D01*
X11348786Y-9863072D01*
X11363071Y-9891643D01*
X11377357Y-9948786D01*
X11377357Y-9991643D01*
X11363071Y-10048786D01*
X11348786Y-10077357D01*
X11320214Y-10105929D01*
X11277357Y-10120214D01*
X11205928Y-10120214D01*
X11505928Y-10120214D02*
X11505928Y-9920214D01*
X11505928Y-9977357D02*
X11520214Y-9948786D01*
X11534500Y-9934500D01*
X11563071Y-9920214D01*
X11591643Y-9920214D01*
X11691643Y-10120214D02*
X11691643Y-9920214D01*
X11691643Y-9820214D02*
X11677357Y-9834500D01*
X11691643Y-9848786D01*
X11705928Y-9834500D01*
X11691643Y-9820214D01*
X11691643Y-9848786D01*
X11877357Y-10120214D02*
X11848786Y-10105929D01*
X11834500Y-10077357D01*
X11834500Y-9820214D01*
X12034500Y-10120214D02*
X12005928Y-10105929D01*
X11991643Y-10077357D01*
X11991643Y-9820214D01*
X12377357Y-10120214D02*
X12377357Y-9820214D01*
X12477357Y-10034500D01*
X12577357Y-9820214D01*
X12577357Y-10120214D01*
X12848786Y-10120214D02*
X12848786Y-9963072D01*
X12834500Y-9934500D01*
X12805928Y-9920214D01*
X12748786Y-9920214D01*
X12720214Y-9934500D01*
X12848786Y-10105929D02*
X12820214Y-10120214D01*
X12748786Y-10120214D01*
X12720214Y-10105929D01*
X12705928Y-10077357D01*
X12705928Y-10048786D01*
X12720214Y-10020214D01*
X12748786Y-10005929D01*
X12820214Y-10005929D01*
X12848786Y-9991643D01*
X12991643Y-9920214D02*
X12991643Y-10220214D01*
X12991643Y-9934500D02*
X13020214Y-9920214D01*
X13077357Y-9920214D01*
X13105928Y-9934500D01*
X13120214Y-9948786D01*
X13134500Y-9977357D01*
X13134500Y-10063072D01*
X13120214Y-10091643D01*
X13105928Y-10105929D01*
X13077357Y-10120214D01*
X13020214Y-10120214D01*
X12991643Y-10105929D01*
X13263071Y-10091643D02*
X13277357Y-10105929D01*
X13263071Y-10120214D01*
X13248786Y-10105929D01*
X13263071Y-10091643D01*
X13263071Y-10120214D01*
X13263071Y-9934500D02*
X13277357Y-9948786D01*
X13263071Y-9963072D01*
X13248786Y-9948786D01*
X13263071Y-9934500D01*
X13263071Y-9963072D01*
X10749500Y-10529500D02*
X10919500Y-10699500D01*
X10919500Y-10529500D02*
X10749500Y-10699500D01*
X11363071Y-10750214D02*
X11191643Y-10750214D01*
X11277357Y-10750214D02*
X11277357Y-10450214D01*
X11248786Y-10493072D01*
X11220214Y-10521643D01*
X11191643Y-10535929D01*
X11491643Y-10721643D02*
X11505928Y-10735929D01*
X11491643Y-10750214D01*
X11477357Y-10735929D01*
X11491643Y-10721643D01*
X11491643Y-10750214D01*
X11605928Y-10450214D02*
X11805928Y-10450214D01*
X11677357Y-10750214D01*
X11977357Y-10450214D02*
X12005928Y-10450214D01*
X12034500Y-10464500D01*
X12048786Y-10478786D01*
X12063071Y-10507357D01*
X12077357Y-10564500D01*
X12077357Y-10635929D01*
X12063071Y-10693072D01*
X12048786Y-10721643D01*
X12034500Y-10735929D01*
X12005928Y-10750214D01*
X11977357Y-10750214D01*
X11948786Y-10735929D01*
X11934500Y-10721643D01*
X11920214Y-10693072D01*
X11905928Y-10635929D01*
X11905928Y-10564500D01*
X11920214Y-10507357D01*
X11934500Y-10478786D01*
X11948786Y-10464500D01*
X11977357Y-10450214D01*
X12263071Y-10450214D02*
X12291643Y-10450214D01*
X12320214Y-10464500D01*
X12334500Y-10478786D01*
X12348786Y-10507357D01*
X12363071Y-10564500D01*
X12363071Y-10635929D01*
X12348786Y-10693072D01*
X12334500Y-10721643D01*
X12320214Y-10735929D01*
X12291643Y-10750214D01*
X12263071Y-10750214D01*
X12234500Y-10735929D01*
X12220214Y-10721643D01*
X12205928Y-10693072D01*
X12191643Y-10635929D01*
X12191643Y-10564500D01*
X12205928Y-10507357D01*
X12220214Y-10478786D01*
X12234500Y-10464500D01*
X12263071Y-10450214D01*
X12491643Y-10750214D02*
X12491643Y-10550214D01*
X12491643Y-10578786D02*
X12505928Y-10564500D01*
X12534500Y-10550214D01*
X12577357Y-10550214D01*
X12605928Y-10564500D01*
X12620214Y-10593072D01*
X12620214Y-10750214D01*
X12620214Y-10593072D02*
X12634500Y-10564500D01*
X12663071Y-10550214D01*
X12705928Y-10550214D01*
X12734500Y-10564500D01*
X12748786Y-10593072D01*
X12748786Y-10750214D01*
X12891643Y-10750214D02*
X12891643Y-10550214D01*
X12891643Y-10578786D02*
X12905928Y-10564500D01*
X12934500Y-10550214D01*
X12977357Y-10550214D01*
X13005928Y-10564500D01*
X13020214Y-10593072D01*
X13020214Y-10750214D01*
X13020214Y-10593072D02*
X13034500Y-10564500D01*
X13063071Y-10550214D01*
X13105928Y-10550214D01*
X13134500Y-10564500D01*
X13148786Y-10593072D01*
X13148786Y-10750214D01*
X13734500Y-10435929D02*
X13477357Y-10821643D01*
X14120214Y-10450214D02*
X14148786Y-10450214D01*
X14177357Y-10464500D01*
X14191643Y-10478786D01*
X14205928Y-10507357D01*
X14220214Y-10564500D01*
X14220214Y-10635929D01*
X14205928Y-10693072D01*
X14191643Y-10721643D01*
X14177357Y-10735929D01*
X14148786Y-10750214D01*
X14120214Y-10750214D01*
X14091643Y-10735929D01*
X14077357Y-10721643D01*
X14063071Y-10693072D01*
X14048786Y-10635929D01*
X14048786Y-10564500D01*
X14063071Y-10507357D01*
X14077357Y-10478786D01*
X14091643Y-10464500D01*
X14120214Y-10450214D01*
X14348786Y-10721643D02*
X14363071Y-10735929D01*
X14348786Y-10750214D01*
X14334500Y-10735929D01*
X14348786Y-10721643D01*
X14348786Y-10750214D01*
X14548786Y-10450214D02*
X14577357Y-10450214D01*
X14605928Y-10464500D01*
X14620214Y-10478786D01*
X14634500Y-10507357D01*
X14648786Y-10564500D01*
X14648786Y-10635929D01*
X14634500Y-10693072D01*
X14620214Y-10721643D01*
X14605928Y-10735929D01*
X14577357Y-10750214D01*
X14548786Y-10750214D01*
X14520214Y-10735929D01*
X14505928Y-10721643D01*
X14491643Y-10693072D01*
X14477357Y-10635929D01*
X14477357Y-10564500D01*
X14491643Y-10507357D01*
X14505928Y-10478786D01*
X14520214Y-10464500D01*
X14548786Y-10450214D01*
X14905928Y-10450214D02*
X14848786Y-10450214D01*
X14820214Y-10464500D01*
X14805928Y-10478786D01*
X14777357Y-10521643D01*
X14763071Y-10578786D01*
X14763071Y-10693072D01*
X14777357Y-10721643D01*
X14791643Y-10735929D01*
X14820214Y-10750214D01*
X14877357Y-10750214D01*
X14905928Y-10735929D01*
X14920214Y-10721643D01*
X14934500Y-10693072D01*
X14934500Y-10621643D01*
X14920214Y-10593072D01*
X14905928Y-10578786D01*
X14877357Y-10564500D01*
X14820214Y-10564500D01*
X14791643Y-10578786D01*
X14777357Y-10593072D01*
X14763071Y-10621643D01*
X15191643Y-10450214D02*
X15134500Y-10450214D01*
X15105928Y-10464500D01*
X15091643Y-10478786D01*
X15063071Y-10521643D01*
X15048786Y-10578786D01*
X15048786Y-10693072D01*
X15063071Y-10721643D01*
X15077357Y-10735929D01*
X15105928Y-10750214D01*
X15163071Y-10750214D01*
X15191643Y-10735929D01*
X15205928Y-10721643D01*
X15220214Y-10693072D01*
X15220214Y-10621643D01*
X15205928Y-10593072D01*
X15191643Y-10578786D01*
X15163071Y-10564500D01*
X15105928Y-10564500D01*
X15077357Y-10578786D01*
X15063071Y-10593072D01*
X15048786Y-10621643D01*
X15363071Y-10750214D02*
X15420214Y-10750214D01*
X15448786Y-10735929D01*
X15463071Y-10721643D01*
X15491643Y-10678786D01*
X15505928Y-10621643D01*
X15505928Y-10507357D01*
X15491643Y-10478786D01*
X15477357Y-10464500D01*
X15448786Y-10450214D01*
X15391643Y-10450214D01*
X15363071Y-10464500D01*
X15348786Y-10478786D01*
X15334500Y-10507357D01*
X15334500Y-10578786D01*
X15348786Y-10607357D01*
X15363071Y-10621643D01*
X15391643Y-10635929D01*
X15448786Y-10635929D01*
X15477357Y-10621643D01*
X15491643Y-10607357D01*
X15505928Y-10578786D01*
X15620214Y-10450214D02*
X15620214Y-10507357D01*
X15734500Y-10450214D02*
X15734500Y-10507357D01*
X16177357Y-10864500D02*
X16163071Y-10850214D01*
X16134500Y-10807357D01*
X16120214Y-10778786D01*
X16105928Y-10735929D01*
X16091643Y-10664500D01*
X16091643Y-10607357D01*
X16105928Y-10535929D01*
X16120214Y-10493072D01*
X16134500Y-10464500D01*
X16163071Y-10421643D01*
X16177357Y-10407357D01*
X16420214Y-10550214D02*
X16420214Y-10750214D01*
X16348786Y-10435929D02*
X16277357Y-10650214D01*
X16463071Y-10650214D01*
X16805928Y-10750214D02*
X16805928Y-10450214D01*
X16934500Y-10750214D02*
X16934500Y-10593072D01*
X16920214Y-10564500D01*
X16891643Y-10550214D01*
X16848786Y-10550214D01*
X16820214Y-10564500D01*
X16805928Y-10578786D01*
X17120214Y-10750214D02*
X17091643Y-10735929D01*
X17077357Y-10721643D01*
X17063071Y-10693072D01*
X17063071Y-10607357D01*
X17077357Y-10578786D01*
X17091643Y-10564500D01*
X17120214Y-10550214D01*
X17163071Y-10550214D01*
X17191643Y-10564500D01*
X17205928Y-10578786D01*
X17220214Y-10607357D01*
X17220214Y-10693072D01*
X17205928Y-10721643D01*
X17191643Y-10735929D01*
X17163071Y-10750214D01*
X17120214Y-10750214D01*
X17391643Y-10750214D02*
X17363071Y-10735929D01*
X17348786Y-10707357D01*
X17348786Y-10450214D01*
X17620214Y-10735929D02*
X17591643Y-10750214D01*
X17534500Y-10750214D01*
X17505928Y-10735929D01*
X17491643Y-10707357D01*
X17491643Y-10593072D01*
X17505928Y-10564500D01*
X17534500Y-10550214D01*
X17591643Y-10550214D01*
X17620214Y-10564500D01*
X17634500Y-10593072D01*
X17634500Y-10621643D01*
X17491643Y-10650214D01*
X17748786Y-10735929D02*
X17777357Y-10750214D01*
X17834500Y-10750214D01*
X17863071Y-10735929D01*
X17877357Y-10707357D01*
X17877357Y-10693072D01*
X17863071Y-10664500D01*
X17834500Y-10650214D01*
X17791643Y-10650214D01*
X17763071Y-10635929D01*
X17748786Y-10607357D01*
X17748786Y-10593072D01*
X17763071Y-10564500D01*
X17791643Y-10550214D01*
X17834500Y-10550214D01*
X17863071Y-10564500D01*
X17977357Y-10864500D02*
X17991643Y-10850214D01*
X18020214Y-10807357D01*
X18034500Y-10778786D01*
X18048786Y-10735929D01*
X18063071Y-10664500D01*
X18063071Y-10607357D01*
X18048786Y-10535929D01*
X18034500Y-10493072D01*
X18020214Y-10464500D01*
X17991643Y-10421643D01*
X17977357Y-10407357D01*
X18520214Y-10864500D02*
X18505928Y-10850214D01*
X18477357Y-10807357D01*
X18463071Y-10778786D01*
X18448786Y-10735929D01*
X18434500Y-10664500D01*
X18434500Y-10607357D01*
X18448786Y-10535929D01*
X18463071Y-10493072D01*
X18477357Y-10464500D01*
X18505928Y-10421643D01*
X18520214Y-10407357D01*
X18634500Y-10550214D02*
X18634500Y-10750214D01*
X18634500Y-10578786D02*
X18648786Y-10564500D01*
X18677357Y-10550214D01*
X18720214Y-10550214D01*
X18748786Y-10564500D01*
X18763071Y-10593072D01*
X18763071Y-10750214D01*
X18948786Y-10750214D02*
X18920214Y-10735929D01*
X18905928Y-10721643D01*
X18891643Y-10693072D01*
X18891643Y-10607357D01*
X18905928Y-10578786D01*
X18920214Y-10564500D01*
X18948786Y-10550214D01*
X18991643Y-10550214D01*
X19020214Y-10564500D01*
X19034500Y-10578786D01*
X19048786Y-10607357D01*
X19048786Y-10693072D01*
X19034500Y-10721643D01*
X19020214Y-10735929D01*
X18991643Y-10750214D01*
X18948786Y-10750214D01*
X19134500Y-10550214D02*
X19248786Y-10550214D01*
X19177357Y-10450214D02*
X19177357Y-10707357D01*
X19191643Y-10735929D01*
X19220214Y-10750214D01*
X19248786Y-10750214D01*
X19577357Y-10550214D02*
X19577357Y-10850214D01*
X19577357Y-10564500D02*
X19605928Y-10550214D01*
X19663071Y-10550214D01*
X19691643Y-10564500D01*
X19705928Y-10578786D01*
X19720214Y-10607357D01*
X19720214Y-10693072D01*
X19705928Y-10721643D01*
X19691643Y-10735929D01*
X19663071Y-10750214D01*
X19605928Y-10750214D01*
X19577357Y-10735929D01*
X19891643Y-10750214D02*
X19863071Y-10735929D01*
X19848786Y-10707357D01*
X19848786Y-10450214D01*
X20134500Y-10750214D02*
X20134500Y-10593072D01*
X20120214Y-10564500D01*
X20091643Y-10550214D01*
X20034500Y-10550214D01*
X20005928Y-10564500D01*
X20134500Y-10735929D02*
X20105928Y-10750214D01*
X20034500Y-10750214D01*
X20005928Y-10735929D01*
X19991643Y-10707357D01*
X19991643Y-10678786D01*
X20005928Y-10650214D01*
X20034500Y-10635929D01*
X20105928Y-10635929D01*
X20134500Y-10621643D01*
X20234500Y-10550214D02*
X20348786Y-10550214D01*
X20277357Y-10450214D02*
X20277357Y-10707357D01*
X20291643Y-10735929D01*
X20320214Y-10750214D01*
X20348786Y-10750214D01*
X20563071Y-10735929D02*
X20534500Y-10750214D01*
X20477357Y-10750214D01*
X20448786Y-10735929D01*
X20434500Y-10707357D01*
X20434500Y-10593072D01*
X20448786Y-10564500D01*
X20477357Y-10550214D01*
X20534500Y-10550214D01*
X20563071Y-10564500D01*
X20577357Y-10593072D01*
X20577357Y-10621643D01*
X20434500Y-10650214D01*
X20834500Y-10750214D02*
X20834500Y-10450214D01*
X20834500Y-10735929D02*
X20805928Y-10750214D01*
X20748786Y-10750214D01*
X20720214Y-10735929D01*
X20705928Y-10721643D01*
X20691643Y-10693072D01*
X20691643Y-10607357D01*
X20705928Y-10578786D01*
X20720214Y-10564500D01*
X20748786Y-10550214D01*
X20805928Y-10550214D01*
X20834500Y-10564500D01*
X20948786Y-10864500D02*
X20963071Y-10850214D01*
X20991643Y-10807357D01*
X21005928Y-10778786D01*
X21020214Y-10735929D01*
X21034500Y-10664500D01*
X21034500Y-10607357D01*
X21020214Y-10535929D01*
X21005928Y-10493072D01*
X20991643Y-10464500D01*
X20963071Y-10421643D01*
X20948786Y-10407357D01*
X10919500Y-11010500D02*
G75*
G03*
X10919500Y-11010500I-165000J0D01*
G01*
X11177357Y-10846214D02*
X11363071Y-10846214D01*
X11263071Y-10960500D01*
X11305928Y-10960500D01*
X11334500Y-10974786D01*
X11348786Y-10989072D01*
X11363071Y-11017643D01*
X11363071Y-11089072D01*
X11348786Y-11117643D01*
X11334500Y-11131929D01*
X11305928Y-11146214D01*
X11220214Y-11146214D01*
X11191643Y-11131929D01*
X11177357Y-11117643D01*
X11491643Y-11117643D02*
X11505928Y-11131929D01*
X11491643Y-11146214D01*
X11477357Y-11131929D01*
X11491643Y-11117643D01*
X11491643Y-11146214D01*
X11605928Y-10846214D02*
X11791643Y-10846214D01*
X11691643Y-10960500D01*
X11734500Y-10960500D01*
X11763071Y-10974786D01*
X11777357Y-10989072D01*
X11791643Y-11017643D01*
X11791643Y-11089072D01*
X11777357Y-11117643D01*
X11763071Y-11131929D01*
X11734500Y-11146214D01*
X11648786Y-11146214D01*
X11620214Y-11131929D01*
X11605928Y-11117643D01*
X11977357Y-10846214D02*
X12005928Y-10846214D01*
X12034500Y-10860500D01*
X12048786Y-10874786D01*
X12063071Y-10903357D01*
X12077357Y-10960500D01*
X12077357Y-11031929D01*
X12063071Y-11089072D01*
X12048786Y-11117643D01*
X12034500Y-11131929D01*
X12005928Y-11146214D01*
X11977357Y-11146214D01*
X11948786Y-11131929D01*
X11934500Y-11117643D01*
X11920214Y-11089072D01*
X11905928Y-11031929D01*
X11905928Y-10960500D01*
X11920214Y-10903357D01*
X11934500Y-10874786D01*
X11948786Y-10860500D01*
X11977357Y-10846214D01*
X12263071Y-10846214D02*
X12291643Y-10846214D01*
X12320214Y-10860500D01*
X12334500Y-10874786D01*
X12348786Y-10903357D01*
X12363071Y-10960500D01*
X12363071Y-11031929D01*
X12348786Y-11089072D01*
X12334500Y-11117643D01*
X12320214Y-11131929D01*
X12291643Y-11146214D01*
X12263071Y-11146214D01*
X12234500Y-11131929D01*
X12220214Y-11117643D01*
X12205928Y-11089072D01*
X12191643Y-11031929D01*
X12191643Y-10960500D01*
X12205928Y-10903357D01*
X12220214Y-10874786D01*
X12234500Y-10860500D01*
X12263071Y-10846214D01*
X12491643Y-11146214D02*
X12491643Y-10946214D01*
X12491643Y-10974786D02*
X12505928Y-10960500D01*
X12534500Y-10946214D01*
X12577357Y-10946214D01*
X12605928Y-10960500D01*
X12620214Y-10989072D01*
X12620214Y-11146214D01*
X12620214Y-10989072D02*
X12634500Y-10960500D01*
X12663071Y-10946214D01*
X12705928Y-10946214D01*
X12734500Y-10960500D01*
X12748786Y-10989072D01*
X12748786Y-11146214D01*
X12891643Y-11146214D02*
X12891643Y-10946214D01*
X12891643Y-10974786D02*
X12905928Y-10960500D01*
X12934500Y-10946214D01*
X12977357Y-10946214D01*
X13005928Y-10960500D01*
X13020214Y-10989072D01*
X13020214Y-11146214D01*
X13020214Y-10989072D02*
X13034500Y-10960500D01*
X13063071Y-10946214D01*
X13105928Y-10946214D01*
X13134500Y-10960500D01*
X13148786Y-10989072D01*
X13148786Y-11146214D01*
X13734500Y-10831929D02*
X13477357Y-11217643D01*
X14120214Y-10846214D02*
X14148786Y-10846214D01*
X14177357Y-10860500D01*
X14191643Y-10874786D01*
X14205928Y-10903357D01*
X14220214Y-10960500D01*
X14220214Y-11031929D01*
X14205928Y-11089072D01*
X14191643Y-11117643D01*
X14177357Y-11131929D01*
X14148786Y-11146214D01*
X14120214Y-11146214D01*
X14091643Y-11131929D01*
X14077357Y-11117643D01*
X14063071Y-11089072D01*
X14048786Y-11031929D01*
X14048786Y-10960500D01*
X14063071Y-10903357D01*
X14077357Y-10874786D01*
X14091643Y-10860500D01*
X14120214Y-10846214D01*
X14348786Y-11117643D02*
X14363071Y-11131929D01*
X14348786Y-11146214D01*
X14334500Y-11131929D01*
X14348786Y-11117643D01*
X14348786Y-11146214D01*
X14648786Y-11146214D02*
X14477357Y-11146214D01*
X14563071Y-11146214D02*
X14563071Y-10846214D01*
X14534500Y-10889072D01*
X14505928Y-10917643D01*
X14477357Y-10931929D01*
X14763071Y-10874786D02*
X14777357Y-10860500D01*
X14805928Y-10846214D01*
X14877357Y-10846214D01*
X14905928Y-10860500D01*
X14920214Y-10874786D01*
X14934500Y-10903357D01*
X14934500Y-10931929D01*
X14920214Y-10974786D01*
X14748786Y-11146214D01*
X14934500Y-11146214D01*
X15077357Y-11146214D02*
X15134500Y-11146214D01*
X15163071Y-11131929D01*
X15177357Y-11117643D01*
X15205928Y-11074786D01*
X15220214Y-11017643D01*
X15220214Y-10903357D01*
X15205928Y-10874786D01*
X15191643Y-10860500D01*
X15163071Y-10846214D01*
X15105928Y-10846214D01*
X15077357Y-10860500D01*
X15063071Y-10874786D01*
X15048786Y-10903357D01*
X15048786Y-10974786D01*
X15063071Y-11003357D01*
X15077357Y-11017643D01*
X15105928Y-11031929D01*
X15163071Y-11031929D01*
X15191643Y-11017643D01*
X15205928Y-11003357D01*
X15220214Y-10974786D01*
X15363071Y-11146214D02*
X15420214Y-11146214D01*
X15448786Y-11131929D01*
X15463071Y-11117643D01*
X15491643Y-11074786D01*
X15505928Y-11017643D01*
X15505928Y-10903357D01*
X15491643Y-10874786D01*
X15477357Y-10860500D01*
X15448786Y-10846214D01*
X15391643Y-10846214D01*
X15363071Y-10860500D01*
X15348786Y-10874786D01*
X15334500Y-10903357D01*
X15334500Y-10974786D01*
X15348786Y-11003357D01*
X15363071Y-11017643D01*
X15391643Y-11031929D01*
X15448786Y-11031929D01*
X15477357Y-11017643D01*
X15491643Y-11003357D01*
X15505928Y-10974786D01*
X15620214Y-10846214D02*
X15620214Y-10903357D01*
X15734500Y-10846214D02*
X15734500Y-10903357D01*
X16177357Y-11260500D02*
X16163071Y-11246214D01*
X16134500Y-11203357D01*
X16120214Y-11174786D01*
X16105928Y-11131929D01*
X16091643Y-11060500D01*
X16091643Y-11003357D01*
X16105928Y-10931929D01*
X16120214Y-10889072D01*
X16134500Y-10860500D01*
X16163071Y-10817643D01*
X16177357Y-10803357D01*
X16348786Y-10846214D02*
X16377357Y-10846214D01*
X16405928Y-10860500D01*
X16420214Y-10874786D01*
X16434500Y-10903357D01*
X16448786Y-10960500D01*
X16448786Y-11031929D01*
X16434500Y-11089072D01*
X16420214Y-11117643D01*
X16405928Y-11131929D01*
X16377357Y-11146214D01*
X16348786Y-11146214D01*
X16320214Y-11131929D01*
X16305928Y-11117643D01*
X16291643Y-11089072D01*
X16277357Y-11031929D01*
X16277357Y-10960500D01*
X16291643Y-10903357D01*
X16305928Y-10874786D01*
X16320214Y-10860500D01*
X16348786Y-10846214D01*
X16805928Y-11146214D02*
X16805928Y-10846214D01*
X16934500Y-11146214D02*
X16934500Y-10989072D01*
X16920214Y-10960500D01*
X16891643Y-10946214D01*
X16848786Y-10946214D01*
X16820214Y-10960500D01*
X16805928Y-10974786D01*
X17120214Y-11146214D02*
X17091643Y-11131929D01*
X17077357Y-11117643D01*
X17063071Y-11089072D01*
X17063071Y-11003357D01*
X17077357Y-10974786D01*
X17091643Y-10960500D01*
X17120214Y-10946214D01*
X17163071Y-10946214D01*
X17191643Y-10960500D01*
X17205928Y-10974786D01*
X17220214Y-11003357D01*
X17220214Y-11089072D01*
X17205928Y-11117643D01*
X17191643Y-11131929D01*
X17163071Y-11146214D01*
X17120214Y-11146214D01*
X17391643Y-11146214D02*
X17363071Y-11131929D01*
X17348786Y-11103357D01*
X17348786Y-10846214D01*
X17620214Y-11131929D02*
X17591643Y-11146214D01*
X17534500Y-11146214D01*
X17505928Y-11131929D01*
X17491643Y-11103357D01*
X17491643Y-10989072D01*
X17505928Y-10960500D01*
X17534500Y-10946214D01*
X17591643Y-10946214D01*
X17620214Y-10960500D01*
X17634500Y-10989072D01*
X17634500Y-11017643D01*
X17491643Y-11046214D01*
X17748786Y-11131929D02*
X17777357Y-11146214D01*
X17834500Y-11146214D01*
X17863071Y-11131929D01*
X17877357Y-11103357D01*
X17877357Y-11089072D01*
X17863071Y-11060500D01*
X17834500Y-11046214D01*
X17791643Y-11046214D01*
X17763071Y-11031929D01*
X17748786Y-11003357D01*
X17748786Y-10989072D01*
X17763071Y-10960500D01*
X17791643Y-10946214D01*
X17834500Y-10946214D01*
X17863071Y-10960500D01*
X18234500Y-11031929D02*
X18463071Y-11031929D01*
X18348786Y-11146214D02*
X18348786Y-10917643D01*
X18820214Y-10874786D02*
X18834500Y-10860500D01*
X18863071Y-10846214D01*
X18934500Y-10846214D01*
X18963071Y-10860500D01*
X18977357Y-10874786D01*
X18991643Y-10903357D01*
X18991643Y-10931929D01*
X18977357Y-10974786D01*
X18805928Y-11146214D01*
X18991643Y-11146214D01*
X19334500Y-11131929D02*
X19363071Y-11146214D01*
X19420214Y-11146214D01*
X19448786Y-11131929D01*
X19463071Y-11103357D01*
X19463071Y-11089072D01*
X19448786Y-11060500D01*
X19420214Y-11046214D01*
X19377357Y-11046214D01*
X19348786Y-11031929D01*
X19334500Y-11003357D01*
X19334500Y-10989072D01*
X19348786Y-10960500D01*
X19377357Y-10946214D01*
X19420214Y-10946214D01*
X19448786Y-10960500D01*
X19634500Y-11146214D02*
X19605928Y-11131929D01*
X19591643Y-11103357D01*
X19591643Y-10846214D01*
X19791643Y-11146214D02*
X19763071Y-11131929D01*
X19748786Y-11117643D01*
X19734500Y-11089072D01*
X19734500Y-11003357D01*
X19748786Y-10974786D01*
X19763071Y-10960500D01*
X19791643Y-10946214D01*
X19834500Y-10946214D01*
X19863071Y-10960500D01*
X19877357Y-10974786D01*
X19891643Y-11003357D01*
X19891643Y-11089072D01*
X19877357Y-11117643D01*
X19863071Y-11131929D01*
X19834500Y-11146214D01*
X19791643Y-11146214D01*
X19977357Y-10946214D02*
X20091643Y-10946214D01*
X20020214Y-10846214D02*
X20020214Y-11103357D01*
X20034500Y-11131929D01*
X20063071Y-11146214D01*
X20091643Y-11146214D01*
X20177357Y-11131929D02*
X20205928Y-11146214D01*
X20263071Y-11146214D01*
X20291643Y-11131929D01*
X20305928Y-11103357D01*
X20305928Y-11089072D01*
X20291643Y-11060500D01*
X20263071Y-11046214D01*
X20220214Y-11046214D01*
X20191643Y-11031929D01*
X20177357Y-11003357D01*
X20177357Y-10989072D01*
X20191643Y-10960500D01*
X20220214Y-10946214D01*
X20263071Y-10946214D01*
X20291643Y-10960500D01*
X20405928Y-11260500D02*
X20420214Y-11246214D01*
X20448786Y-11203357D01*
X20463071Y-11174786D01*
X20477357Y-11131929D01*
X20491643Y-11060500D01*
X20491643Y-11003357D01*
X20477357Y-10931929D01*
X20463071Y-10889072D01*
X20448786Y-10860500D01*
X20420214Y-10817643D01*
X20405928Y-10803357D01*
X20948786Y-11260500D02*
X20934500Y-11246214D01*
X20905928Y-11203357D01*
X20891643Y-11174786D01*
X20877357Y-11131929D01*
X20863071Y-11060500D01*
X20863071Y-11003357D01*
X20877357Y-10931929D01*
X20891643Y-10889072D01*
X20905928Y-10860500D01*
X20934500Y-10817643D01*
X20948786Y-10803357D01*
X21063071Y-10946214D02*
X21063071Y-11146214D01*
X21063071Y-10974786D02*
X21077357Y-10960500D01*
X21105928Y-10946214D01*
X21148786Y-10946214D01*
X21177357Y-10960500D01*
X21191643Y-10989072D01*
X21191643Y-11146214D01*
X21377357Y-11146214D02*
X21348786Y-11131929D01*
X21334500Y-11117643D01*
X21320214Y-11089072D01*
X21320214Y-11003357D01*
X21334500Y-10974786D01*
X21348786Y-10960500D01*
X21377357Y-10946214D01*
X21420214Y-10946214D01*
X21448786Y-10960500D01*
X21463071Y-10974786D01*
X21477357Y-11003357D01*
X21477357Y-11089072D01*
X21463071Y-11117643D01*
X21448786Y-11131929D01*
X21420214Y-11146214D01*
X21377357Y-11146214D01*
X21563071Y-10946214D02*
X21677357Y-10946214D01*
X21605928Y-10846214D02*
X21605928Y-11103357D01*
X21620214Y-11131929D01*
X21648786Y-11146214D01*
X21677357Y-11146214D01*
X22005928Y-10946214D02*
X22005928Y-11246214D01*
X22005928Y-10960500D02*
X22034500Y-10946214D01*
X22091643Y-10946214D01*
X22120214Y-10960500D01*
X22134500Y-10974786D01*
X22148786Y-11003357D01*
X22148786Y-11089072D01*
X22134500Y-11117643D01*
X22120214Y-11131929D01*
X22091643Y-11146214D01*
X22034500Y-11146214D01*
X22005928Y-11131929D01*
X22320214Y-11146214D02*
X22291643Y-11131929D01*
X22277357Y-11103357D01*
X22277357Y-10846214D01*
X22563071Y-11146214D02*
X22563071Y-10989072D01*
X22548786Y-10960500D01*
X22520214Y-10946214D01*
X22463071Y-10946214D01*
X22434500Y-10960500D01*
X22563071Y-11131929D02*
X22534500Y-11146214D01*
X22463071Y-11146214D01*
X22434500Y-11131929D01*
X22420214Y-11103357D01*
X22420214Y-11074786D01*
X22434500Y-11046214D01*
X22463071Y-11031929D01*
X22534500Y-11031929D01*
X22563071Y-11017643D01*
X22663071Y-10946214D02*
X22777357Y-10946214D01*
X22705928Y-10846214D02*
X22705928Y-11103357D01*
X22720214Y-11131929D01*
X22748786Y-11146214D01*
X22777357Y-11146214D01*
X22991643Y-11131929D02*
X22963071Y-11146214D01*
X22905928Y-11146214D01*
X22877357Y-11131929D01*
X22863071Y-11103357D01*
X22863071Y-10989072D01*
X22877357Y-10960500D01*
X22905928Y-10946214D01*
X22963071Y-10946214D01*
X22991643Y-10960500D01*
X23005928Y-10989072D01*
X23005928Y-11017643D01*
X22863071Y-11046214D01*
X23263071Y-11146214D02*
X23263071Y-10846214D01*
X23263071Y-11131929D02*
X23234500Y-11146214D01*
X23177357Y-11146214D01*
X23148786Y-11131929D01*
X23134500Y-11117643D01*
X23120214Y-11089072D01*
X23120214Y-11003357D01*
X23134500Y-10974786D01*
X23148786Y-10960500D01*
X23177357Y-10946214D01*
X23234500Y-10946214D01*
X23263071Y-10960500D01*
X23377357Y-11260500D02*
X23391643Y-11246214D01*
X23420214Y-11203357D01*
X23434500Y-11174786D01*
X23448786Y-11131929D01*
X23463071Y-11060500D01*
X23463071Y-11003357D01*
X23448786Y-10931929D01*
X23434500Y-10889072D01*
X23420214Y-10860500D01*
X23391643Y-10817643D01*
X23377357Y-10803357D01*
X10719500Y-11270500D02*
X10719500Y-11670500D01*
X10519500Y-11470500D02*
X10919500Y-11470500D01*
X11334500Y-11406214D02*
X11334500Y-11606214D01*
X11263071Y-11291929D02*
X11191643Y-11506214D01*
X11377357Y-11506214D01*
X11491643Y-11577643D02*
X11505928Y-11591929D01*
X11491643Y-11606214D01*
X11477357Y-11591929D01*
X11491643Y-11577643D01*
X11491643Y-11606214D01*
X11691643Y-11306214D02*
X11720214Y-11306214D01*
X11748786Y-11320500D01*
X11763071Y-11334786D01*
X11777357Y-11363357D01*
X11791643Y-11420500D01*
X11791643Y-11491929D01*
X11777357Y-11549071D01*
X11763071Y-11577643D01*
X11748786Y-11591929D01*
X11720214Y-11606214D01*
X11691643Y-11606214D01*
X11663071Y-11591929D01*
X11648786Y-11577643D01*
X11634500Y-11549071D01*
X11620214Y-11491929D01*
X11620214Y-11420500D01*
X11634500Y-11363357D01*
X11648786Y-11334786D01*
X11663071Y-11320500D01*
X11691643Y-11306214D01*
X11977357Y-11306214D02*
X12005928Y-11306214D01*
X12034500Y-11320500D01*
X12048786Y-11334786D01*
X12063071Y-11363357D01*
X12077357Y-11420500D01*
X12077357Y-11491929D01*
X12063071Y-11549071D01*
X12048786Y-11577643D01*
X12034500Y-11591929D01*
X12005928Y-11606214D01*
X11977357Y-11606214D01*
X11948786Y-11591929D01*
X11934500Y-11577643D01*
X11920214Y-11549071D01*
X11905928Y-11491929D01*
X11905928Y-11420500D01*
X11920214Y-11363357D01*
X11934500Y-11334786D01*
X11948786Y-11320500D01*
X11977357Y-11306214D01*
X12263071Y-11306214D02*
X12291643Y-11306214D01*
X12320214Y-11320500D01*
X12334500Y-11334786D01*
X12348786Y-11363357D01*
X12363071Y-11420500D01*
X12363071Y-11491929D01*
X12348786Y-11549071D01*
X12334500Y-11577643D01*
X12320214Y-11591929D01*
X12291643Y-11606214D01*
X12263071Y-11606214D01*
X12234500Y-11591929D01*
X12220214Y-11577643D01*
X12205928Y-11549071D01*
X12191643Y-11491929D01*
X12191643Y-11420500D01*
X12205928Y-11363357D01*
X12220214Y-11334786D01*
X12234500Y-11320500D01*
X12263071Y-11306214D01*
X12491643Y-11606214D02*
X12491643Y-11406214D01*
X12491643Y-11434786D02*
X12505928Y-11420500D01*
X12534500Y-11406214D01*
X12577357Y-11406214D01*
X12605928Y-11420500D01*
X12620214Y-11449071D01*
X12620214Y-11606214D01*
X12620214Y-11449071D02*
X12634500Y-11420500D01*
X12663071Y-11406214D01*
X12705928Y-11406214D01*
X12734500Y-11420500D01*
X12748786Y-11449071D01*
X12748786Y-11606214D01*
X12891643Y-11606214D02*
X12891643Y-11406214D01*
X12891643Y-11434786D02*
X12905928Y-11420500D01*
X12934500Y-11406214D01*
X12977357Y-11406214D01*
X13005928Y-11420500D01*
X13020214Y-11449071D01*
X13020214Y-11606214D01*
X13020214Y-11449071D02*
X13034500Y-11420500D01*
X13063071Y-11406214D01*
X13105928Y-11406214D01*
X13134500Y-11420500D01*
X13148786Y-11449071D01*
X13148786Y-11606214D01*
X13734500Y-11291929D02*
X13477357Y-11677643D01*
X14120214Y-11306214D02*
X14148786Y-11306214D01*
X14177357Y-11320500D01*
X14191643Y-11334786D01*
X14205928Y-11363357D01*
X14220214Y-11420500D01*
X14220214Y-11491929D01*
X14205928Y-11549071D01*
X14191643Y-11577643D01*
X14177357Y-11591929D01*
X14148786Y-11606214D01*
X14120214Y-11606214D01*
X14091643Y-11591929D01*
X14077357Y-11577643D01*
X14063071Y-11549071D01*
X14048786Y-11491929D01*
X14048786Y-11420500D01*
X14063071Y-11363357D01*
X14077357Y-11334786D01*
X14091643Y-11320500D01*
X14120214Y-11306214D01*
X14348786Y-11577643D02*
X14363071Y-11591929D01*
X14348786Y-11606214D01*
X14334500Y-11591929D01*
X14348786Y-11577643D01*
X14348786Y-11606214D01*
X14648786Y-11606214D02*
X14477357Y-11606214D01*
X14563071Y-11606214D02*
X14563071Y-11306214D01*
X14534500Y-11349071D01*
X14505928Y-11377643D01*
X14477357Y-11391929D01*
X14920214Y-11306214D02*
X14777357Y-11306214D01*
X14763071Y-11449071D01*
X14777357Y-11434786D01*
X14805928Y-11420500D01*
X14877357Y-11420500D01*
X14905928Y-11434786D01*
X14920214Y-11449071D01*
X14934500Y-11477643D01*
X14934500Y-11549071D01*
X14920214Y-11577643D01*
X14905928Y-11591929D01*
X14877357Y-11606214D01*
X14805928Y-11606214D01*
X14777357Y-11591929D01*
X14763071Y-11577643D01*
X15034500Y-11306214D02*
X15234500Y-11306214D01*
X15105928Y-11606214D01*
X15491643Y-11306214D02*
X15348786Y-11306214D01*
X15334500Y-11449071D01*
X15348786Y-11434786D01*
X15377357Y-11420500D01*
X15448786Y-11420500D01*
X15477357Y-11434786D01*
X15491643Y-11449071D01*
X15505928Y-11477643D01*
X15505928Y-11549071D01*
X15491643Y-11577643D01*
X15477357Y-11591929D01*
X15448786Y-11606214D01*
X15377357Y-11606214D01*
X15348786Y-11591929D01*
X15334500Y-11577643D01*
X15620214Y-11306214D02*
X15620214Y-11363357D01*
X15734500Y-11306214D02*
X15734500Y-11363357D01*
X16177357Y-11720500D02*
X16163071Y-11706214D01*
X16134500Y-11663357D01*
X16120214Y-11634786D01*
X16105928Y-11591929D01*
X16091643Y-11520500D01*
X16091643Y-11463357D01*
X16105928Y-11391929D01*
X16120214Y-11349071D01*
X16134500Y-11320500D01*
X16163071Y-11277643D01*
X16177357Y-11263357D01*
X16277357Y-11334786D02*
X16291643Y-11320500D01*
X16320214Y-11306214D01*
X16391643Y-11306214D01*
X16420214Y-11320500D01*
X16434500Y-11334786D01*
X16448786Y-11363357D01*
X16448786Y-11391929D01*
X16434500Y-11434786D01*
X16263071Y-11606214D01*
X16448786Y-11606214D01*
X16805928Y-11606214D02*
X16805928Y-11306214D01*
X16934500Y-11606214D02*
X16934500Y-11449071D01*
X16920214Y-11420500D01*
X16891643Y-11406214D01*
X16848786Y-11406214D01*
X16820214Y-11420500D01*
X16805928Y-11434786D01*
X17120214Y-11606214D02*
X17091643Y-11591929D01*
X17077357Y-11577643D01*
X17063071Y-11549071D01*
X17063071Y-11463357D01*
X17077357Y-11434786D01*
X17091643Y-11420500D01*
X17120214Y-11406214D01*
X17163071Y-11406214D01*
X17191643Y-11420500D01*
X17205928Y-11434786D01*
X17220214Y-11463357D01*
X17220214Y-11549071D01*
X17205928Y-11577643D01*
X17191643Y-11591929D01*
X17163071Y-11606214D01*
X17120214Y-11606214D01*
X17391643Y-11606214D02*
X17363071Y-11591929D01*
X17348786Y-11563357D01*
X17348786Y-11306214D01*
X17620214Y-11591929D02*
X17591643Y-11606214D01*
X17534500Y-11606214D01*
X17505928Y-11591929D01*
X17491643Y-11563357D01*
X17491643Y-11449071D01*
X17505928Y-11420500D01*
X17534500Y-11406214D01*
X17591643Y-11406214D01*
X17620214Y-11420500D01*
X17634500Y-11449071D01*
X17634500Y-11477643D01*
X17491643Y-11506214D01*
X17748786Y-11591929D02*
X17777357Y-11606214D01*
X17834500Y-11606214D01*
X17863071Y-11591929D01*
X17877357Y-11563357D01*
X17877357Y-11549071D01*
X17863071Y-11520500D01*
X17834500Y-11506214D01*
X17791643Y-11506214D01*
X17763071Y-11491929D01*
X17748786Y-11463357D01*
X17748786Y-11449071D01*
X17763071Y-11420500D01*
X17791643Y-11406214D01*
X17834500Y-11406214D01*
X17863071Y-11420500D01*
X17977357Y-11720500D02*
X17991643Y-11706214D01*
X18020214Y-11663357D01*
X18034500Y-11634786D01*
X18048786Y-11591929D01*
X18063071Y-11520500D01*
X18063071Y-11463357D01*
X18048786Y-11391929D01*
X18034500Y-11349071D01*
X18020214Y-11320500D01*
X17991643Y-11277643D01*
X17977357Y-11263357D01*
X18520214Y-11720500D02*
X18505928Y-11706214D01*
X18477357Y-11663357D01*
X18463071Y-11634786D01*
X18448786Y-11591929D01*
X18434500Y-11520500D01*
X18434500Y-11463357D01*
X18448786Y-11391929D01*
X18463071Y-11349071D01*
X18477357Y-11320500D01*
X18505928Y-11277643D01*
X18520214Y-11263357D01*
X18634500Y-11406214D02*
X18634500Y-11606214D01*
X18634500Y-11434786D02*
X18648786Y-11420500D01*
X18677357Y-11406214D01*
X18720214Y-11406214D01*
X18748786Y-11420500D01*
X18763071Y-11449071D01*
X18763071Y-11606214D01*
X18948786Y-11606214D02*
X18920214Y-11591929D01*
X18905928Y-11577643D01*
X18891643Y-11549071D01*
X18891643Y-11463357D01*
X18905928Y-11434786D01*
X18920214Y-11420500D01*
X18948786Y-11406214D01*
X18991643Y-11406214D01*
X19020214Y-11420500D01*
X19034500Y-11434786D01*
X19048786Y-11463357D01*
X19048786Y-11549071D01*
X19034500Y-11577643D01*
X19020214Y-11591929D01*
X18991643Y-11606214D01*
X18948786Y-11606214D01*
X19134500Y-11406214D02*
X19248786Y-11406214D01*
X19177357Y-11306214D02*
X19177357Y-11563357D01*
X19191643Y-11591929D01*
X19220214Y-11606214D01*
X19248786Y-11606214D01*
X19577357Y-11406214D02*
X19577357Y-11706214D01*
X19577357Y-11420500D02*
X19605928Y-11406214D01*
X19663071Y-11406214D01*
X19691643Y-11420500D01*
X19705928Y-11434786D01*
X19720214Y-11463357D01*
X19720214Y-11549071D01*
X19705928Y-11577643D01*
X19691643Y-11591929D01*
X19663071Y-11606214D01*
X19605928Y-11606214D01*
X19577357Y-11591929D01*
X19891643Y-11606214D02*
X19863071Y-11591929D01*
X19848786Y-11563357D01*
X19848786Y-11306214D01*
X20134500Y-11606214D02*
X20134500Y-11449071D01*
X20120214Y-11420500D01*
X20091643Y-11406214D01*
X20034500Y-11406214D01*
X20005928Y-11420500D01*
X20134500Y-11591929D02*
X20105928Y-11606214D01*
X20034500Y-11606214D01*
X20005928Y-11591929D01*
X19991643Y-11563357D01*
X19991643Y-11534786D01*
X20005928Y-11506214D01*
X20034500Y-11491929D01*
X20105928Y-11491929D01*
X20134500Y-11477643D01*
X20234500Y-11406214D02*
X20348786Y-11406214D01*
X20277357Y-11306214D02*
X20277357Y-11563357D01*
X20291643Y-11591929D01*
X20320214Y-11606214D01*
X20348786Y-11606214D01*
X20563071Y-11591929D02*
X20534500Y-11606214D01*
X20477357Y-11606214D01*
X20448786Y-11591929D01*
X20434500Y-11563357D01*
X20434500Y-11449071D01*
X20448786Y-11420500D01*
X20477357Y-11406214D01*
X20534500Y-11406214D01*
X20563071Y-11420500D01*
X20577357Y-11449071D01*
X20577357Y-11477643D01*
X20434500Y-11506214D01*
X20834500Y-11606214D02*
X20834500Y-11306214D01*
X20834500Y-11591929D02*
X20805928Y-11606214D01*
X20748786Y-11606214D01*
X20720214Y-11591929D01*
X20705928Y-11577643D01*
X20691643Y-11549071D01*
X20691643Y-11463357D01*
X20705928Y-11434786D01*
X20720214Y-11420500D01*
X20748786Y-11406214D01*
X20805928Y-11406214D01*
X20834500Y-11420500D01*
X20948786Y-11720500D02*
X20963071Y-11706214D01*
X20991643Y-11663357D01*
X21005928Y-11634786D01*
X21020214Y-11591929D01*
X21034500Y-11520500D01*
X21034500Y-11463357D01*
X21020214Y-11391929D01*
X21005928Y-11349071D01*
X20991643Y-11320500D01*
X20963071Y-11277643D01*
X20948786Y-11263357D01*
M02*
