%TF.GenerationSoftware,KiCad,Pcbnew,5.1.10*%
%TF.CreationDate,2021-06-22T00:25:09+02:00*%
%TF.ProjectId,Led_poc,4c65645f-706f-4632-9e6b-696361645f70,rev?*%
%TF.SameCoordinates,Original*%
%TF.FileFunction,Legend,Bot*%
%TF.FilePolarity,Positive*%
%FSLAX46Y46*%
G04 Gerber Fmt 4.6, Leading zero omitted, Abs format (unit mm)*
G04 Created by KiCad (PCBNEW 5.1.10) date 2021-06-22 00:25:09*
%MOMM*%
%LPD*%
G01*
G04 APERTURE LIST*
%ADD10C,0.150000*%
%ADD11C,1.700000*%
%ADD12C,4.000000*%
%ADD13C,2.200000*%
%ADD14O,1.700000X1.700000*%
%ADD15R,1.700000X1.700000*%
%ADD16C,0.100000*%
%ADD17R,1.800000X0.820000*%
G04 APERTURE END LIST*
%TO.C,D2*%
D10*
X152312595Y-87510880D02*
X152312595Y-86510880D01*
X152074500Y-86510880D01*
X151931642Y-86558500D01*
X151836404Y-86653738D01*
X151788785Y-86748976D01*
X151741166Y-86939452D01*
X151741166Y-87082309D01*
X151788785Y-87272785D01*
X151836404Y-87368023D01*
X151931642Y-87463261D01*
X152074500Y-87510880D01*
X152312595Y-87510880D01*
X151360214Y-86606119D02*
X151312595Y-86558500D01*
X151217357Y-86510880D01*
X150979261Y-86510880D01*
X150884023Y-86558500D01*
X150836404Y-86606119D01*
X150788785Y-86701357D01*
X150788785Y-86796595D01*
X150836404Y-86939452D01*
X151407833Y-87510880D01*
X150788785Y-87510880D01*
%TO.C,D1*%
X131738595Y-87637880D02*
X131738595Y-86637880D01*
X131500500Y-86637880D01*
X131357642Y-86685500D01*
X131262404Y-86780738D01*
X131214785Y-86875976D01*
X131167166Y-87066452D01*
X131167166Y-87209309D01*
X131214785Y-87399785D01*
X131262404Y-87495023D01*
X131357642Y-87590261D01*
X131500500Y-87637880D01*
X131738595Y-87637880D01*
X130214785Y-87637880D02*
X130786214Y-87637880D01*
X130500500Y-87637880D02*
X130500500Y-86637880D01*
X130595738Y-86780738D01*
X130690976Y-86875976D01*
X130786214Y-86923595D01*
%TO.C,C2*%
X150725166Y-93638642D02*
X150772785Y-93686261D01*
X150915642Y-93733880D01*
X151010880Y-93733880D01*
X151153738Y-93686261D01*
X151248976Y-93591023D01*
X151296595Y-93495785D01*
X151344214Y-93305309D01*
X151344214Y-93162452D01*
X151296595Y-92971976D01*
X151248976Y-92876738D01*
X151153738Y-92781500D01*
X151010880Y-92733880D01*
X150915642Y-92733880D01*
X150772785Y-92781500D01*
X150725166Y-92829119D01*
X150344214Y-92829119D02*
X150296595Y-92781500D01*
X150201357Y-92733880D01*
X149963261Y-92733880D01*
X149868023Y-92781500D01*
X149820404Y-92829119D01*
X149772785Y-92924357D01*
X149772785Y-93019595D01*
X149820404Y-93162452D01*
X150391833Y-93733880D01*
X149772785Y-93733880D01*
%TO.C,C1*%
X130532166Y-93702142D02*
X130579785Y-93749761D01*
X130722642Y-93797380D01*
X130817880Y-93797380D01*
X130960738Y-93749761D01*
X131055976Y-93654523D01*
X131103595Y-93559285D01*
X131151214Y-93368809D01*
X131151214Y-93225952D01*
X131103595Y-93035476D01*
X131055976Y-92940238D01*
X130960738Y-92845000D01*
X130817880Y-92797380D01*
X130722642Y-92797380D01*
X130579785Y-92845000D01*
X130532166Y-92892619D01*
X129579785Y-93797380D02*
X130151214Y-93797380D01*
X129865500Y-93797380D02*
X129865500Y-92797380D01*
X129960738Y-92940238D01*
X130055976Y-93035476D01*
X130151214Y-93083095D01*
%TD*%
%LPC*%
D11*
%TO.C,SW2*%
X153101000Y-84561500D03*
X142941000Y-84561500D03*
D12*
X148021000Y-84561500D03*
D13*
X144211000Y-82021500D03*
X150561000Y-79481500D03*
%TD*%
D11*
%TO.C,SW1*%
X132901000Y-84561500D03*
X122741000Y-84561500D03*
D12*
X127821000Y-84561500D03*
D13*
X124011000Y-82021500D03*
X130361000Y-79481500D03*
%TD*%
D14*
%TO.C,J1*%
X114109500Y-78232000D03*
X114109500Y-80772000D03*
X114109500Y-83312000D03*
X114109500Y-85852000D03*
X114109500Y-88392000D03*
D15*
X114109500Y-90932000D03*
%TD*%
D16*
%TO.C,D2*%
G36*
X149795500Y-92035000D02*
G01*
X146495500Y-92035000D01*
X146495500Y-87035000D01*
X149795500Y-87035000D01*
X149795500Y-92035000D01*
G37*
D17*
X150645500Y-90285000D03*
X150645500Y-88785000D03*
X145645500Y-88785000D03*
X145645500Y-90285000D03*
%TD*%
D16*
%TO.C,D1*%
G36*
X129539000Y-92098500D02*
G01*
X126239000Y-92098500D01*
X126239000Y-87098500D01*
X129539000Y-87098500D01*
X129539000Y-92098500D01*
G37*
D17*
X130389000Y-90348500D03*
X130389000Y-88848500D03*
X125389000Y-88848500D03*
X125389000Y-90348500D03*
%TD*%
%TO.C,C2*%
G36*
G01*
X148246000Y-92864000D02*
X148246000Y-93064000D01*
G75*
G02*
X148146000Y-93164000I-100000J0D01*
G01*
X147711000Y-93164000D01*
G75*
G02*
X147611000Y-93064000I0J100000D01*
G01*
X147611000Y-92864000D01*
G75*
G02*
X147711000Y-92764000I100000J0D01*
G01*
X148146000Y-92764000D01*
G75*
G02*
X148246000Y-92864000I0J-100000D01*
G01*
G37*
G36*
G01*
X149061000Y-92864000D02*
X149061000Y-93064000D01*
G75*
G02*
X148961000Y-93164000I-100000J0D01*
G01*
X148526000Y-93164000D01*
G75*
G02*
X148426000Y-93064000I0J100000D01*
G01*
X148426000Y-92864000D01*
G75*
G02*
X148526000Y-92764000I100000J0D01*
G01*
X148961000Y-92764000D01*
G75*
G02*
X149061000Y-92864000I0J-100000D01*
G01*
G37*
%TD*%
%TO.C,C1*%
G36*
G01*
X127862500Y-92991000D02*
X127862500Y-93191000D01*
G75*
G02*
X127762500Y-93291000I-100000J0D01*
G01*
X127327500Y-93291000D01*
G75*
G02*
X127227500Y-93191000I0J100000D01*
G01*
X127227500Y-92991000D01*
G75*
G02*
X127327500Y-92891000I100000J0D01*
G01*
X127762500Y-92891000D01*
G75*
G02*
X127862500Y-92991000I0J-100000D01*
G01*
G37*
G36*
G01*
X128677500Y-92991000D02*
X128677500Y-93191000D01*
G75*
G02*
X128577500Y-93291000I-100000J0D01*
G01*
X128142500Y-93291000D01*
G75*
G02*
X128042500Y-93191000I0J100000D01*
G01*
X128042500Y-92991000D01*
G75*
G02*
X128142500Y-92891000I100000J0D01*
G01*
X128577500Y-92891000D01*
G75*
G02*
X128677500Y-92991000I0J-100000D01*
G01*
G37*
%TD*%
M02*
