%TF.GenerationSoftware,KiCad,Pcbnew,5.1.10*%
%TF.CreationDate,2021-06-22T00:25:09+02:00*%
%TF.ProjectId,Led_poc,4c65645f-706f-4632-9e6b-696361645f70,rev?*%
%TF.SameCoordinates,Original*%
%TF.FileFunction,Copper,L2,Bot*%
%TF.FilePolarity,Positive*%
%FSLAX46Y46*%
G04 Gerber Fmt 4.6, Leading zero omitted, Abs format (unit mm)*
G04 Created by KiCad (PCBNEW 5.1.10) date 2021-06-22 00:25:09*
%MOMM*%
%LPD*%
G01*
G04 APERTURE LIST*
%TA.AperFunction,ComponentPad*%
%ADD10C,2.200000*%
%TD*%
%TA.AperFunction,ComponentPad*%
%ADD11O,1.700000X1.700000*%
%TD*%
%TA.AperFunction,ComponentPad*%
%ADD12R,1.700000X1.700000*%
%TD*%
%TA.AperFunction,WasherPad*%
%ADD13C,0.100000*%
%TD*%
%TA.AperFunction,SMDPad,CuDef*%
%ADD14R,1.800000X0.820000*%
%TD*%
%TA.AperFunction,ViaPad*%
%ADD15C,0.800000*%
%TD*%
%TA.AperFunction,Conductor*%
%ADD16C,0.250000*%
%TD*%
%TA.AperFunction,Conductor*%
%ADD17C,0.254000*%
%TD*%
%TA.AperFunction,Conductor*%
%ADD18C,0.100000*%
%TD*%
G04 APERTURE END LIST*
D10*
%TO.P,SW2,2*%
%TO.N,Net-(J1-Pad4)*%
X144211000Y-82021500D03*
%TO.P,SW2,1*%
%TO.N,Net-(J1-Pad6)*%
X150561000Y-79481500D03*
%TD*%
%TO.P,SW1,2*%
%TO.N,Net-(J1-Pad4)*%
X124011000Y-82021500D03*
%TO.P,SW1,1*%
%TO.N,Net-(J1-Pad5)*%
X130361000Y-79481500D03*
%TD*%
D11*
%TO.P,J1,6*%
%TO.N,Net-(J1-Pad6)*%
X114109500Y-78232000D03*
%TO.P,J1,5*%
%TO.N,Net-(J1-Pad5)*%
X114109500Y-80772000D03*
%TO.P,J1,4*%
%TO.N,Net-(J1-Pad4)*%
X114109500Y-83312000D03*
%TO.P,J1,3*%
%TO.N,/GND*%
X114109500Y-85852000D03*
%TO.P,J1,2*%
%TO.N,Net-(D1-Pad4)*%
X114109500Y-88392000D03*
D12*
%TO.P,J1,1*%
%TO.N,/VDD*%
X114109500Y-90932000D03*
%TD*%
%TA.AperFunction,WasherPad*%
D13*
%TO.P,D2,*%
%TO.N,*%
G36*
X149795500Y-92035000D02*
G01*
X146495500Y-92035000D01*
X146495500Y-87035000D01*
X149795500Y-87035000D01*
X149795500Y-92035000D01*
G37*
%TD.AperFunction*%
D14*
%TO.P,D2,1*%
%TO.N,/VDD*%
X150645500Y-90285000D03*
%TO.P,D2,2*%
%TO.N,Net-(D2-Pad2)*%
X150645500Y-88785000D03*
%TO.P,D2,3*%
%TO.N,/GND*%
X145645500Y-88785000D03*
%TO.P,D2,4*%
%TO.N,Net-(D1-Pad2)*%
X145645500Y-90285000D03*
%TD*%
%TA.AperFunction,WasherPad*%
D13*
%TO.P,D1,*%
%TO.N,*%
G36*
X129539000Y-92098500D02*
G01*
X126239000Y-92098500D01*
X126239000Y-87098500D01*
X129539000Y-87098500D01*
X129539000Y-92098500D01*
G37*
%TD.AperFunction*%
D14*
%TO.P,D1,1*%
%TO.N,/VDD*%
X130389000Y-90348500D03*
%TO.P,D1,2*%
%TO.N,Net-(D1-Pad2)*%
X130389000Y-88848500D03*
%TO.P,D1,3*%
%TO.N,/GND*%
X125389000Y-88848500D03*
%TO.P,D1,4*%
%TO.N,Net-(D1-Pad4)*%
X125389000Y-90348500D03*
%TD*%
%TO.P,C2,2*%
%TO.N,/GND*%
%TA.AperFunction,SMDPad,CuDef*%
G36*
G01*
X148246000Y-92864000D02*
X148246000Y-93064000D01*
G75*
G02*
X148146000Y-93164000I-100000J0D01*
G01*
X147711000Y-93164000D01*
G75*
G02*
X147611000Y-93064000I0J100000D01*
G01*
X147611000Y-92864000D01*
G75*
G02*
X147711000Y-92764000I100000J0D01*
G01*
X148146000Y-92764000D01*
G75*
G02*
X148246000Y-92864000I0J-100000D01*
G01*
G37*
%TD.AperFunction*%
%TO.P,C2,1*%
%TO.N,/VDD*%
%TA.AperFunction,SMDPad,CuDef*%
G36*
G01*
X149061000Y-92864000D02*
X149061000Y-93064000D01*
G75*
G02*
X148961000Y-93164000I-100000J0D01*
G01*
X148526000Y-93164000D01*
G75*
G02*
X148426000Y-93064000I0J100000D01*
G01*
X148426000Y-92864000D01*
G75*
G02*
X148526000Y-92764000I100000J0D01*
G01*
X148961000Y-92764000D01*
G75*
G02*
X149061000Y-92864000I0J-100000D01*
G01*
G37*
%TD.AperFunction*%
%TD*%
%TO.P,C1,2*%
%TO.N,/GND*%
%TA.AperFunction,SMDPad,CuDef*%
G36*
G01*
X127862500Y-92991000D02*
X127862500Y-93191000D01*
G75*
G02*
X127762500Y-93291000I-100000J0D01*
G01*
X127327500Y-93291000D01*
G75*
G02*
X127227500Y-93191000I0J100000D01*
G01*
X127227500Y-92991000D01*
G75*
G02*
X127327500Y-92891000I100000J0D01*
G01*
X127762500Y-92891000D01*
G75*
G02*
X127862500Y-92991000I0J-100000D01*
G01*
G37*
%TD.AperFunction*%
%TO.P,C1,1*%
%TO.N,/VDD*%
%TA.AperFunction,SMDPad,CuDef*%
G36*
G01*
X128677500Y-92991000D02*
X128677500Y-93191000D01*
G75*
G02*
X128577500Y-93291000I-100000J0D01*
G01*
X128142500Y-93291000D01*
G75*
G02*
X128042500Y-93191000I0J100000D01*
G01*
X128042500Y-92991000D01*
G75*
G02*
X128142500Y-92891000I100000J0D01*
G01*
X128577500Y-92891000D01*
G75*
G02*
X128677500Y-92991000I0J-100000D01*
G01*
G37*
%TD.AperFunction*%
%TD*%
D15*
%TO.N,/GND*%
X123698000Y-88836500D03*
X124904500Y-87630000D03*
X143891000Y-88773000D03*
X145288000Y-87566500D03*
X126365000Y-93091000D03*
X146748500Y-92900500D03*
%TD*%
D16*
%TO.N,Net-(D1-Pad2)*%
X130389000Y-88848500D02*
X137172000Y-88848500D01*
X138608500Y-90285000D02*
X145645500Y-90285000D01*
X137172000Y-88848500D02*
X138608500Y-90285000D01*
%TO.N,Net-(D1-Pad4)*%
X114109500Y-88392000D02*
X119316500Y-88392000D01*
X121273000Y-90348500D02*
X125389000Y-90348500D01*
X119316500Y-88392000D02*
X121273000Y-90348500D01*
%TO.N,Net-(J1-Pad6)*%
X114109500Y-78232000D02*
X125158500Y-78232000D01*
X125158500Y-78232000D02*
X126619000Y-76771500D01*
X147851000Y-76771500D02*
X150561000Y-79481500D01*
X126619000Y-76771500D02*
X147851000Y-76771500D01*
%TO.N,Net-(J1-Pad4)*%
X143215500Y-81026000D02*
X144211000Y-82021500D01*
X125006500Y-81026000D02*
X143215500Y-81026000D01*
X124011000Y-82021500D02*
X125006500Y-81026000D01*
%TO.N,/GND*%
X123710000Y-88848500D02*
X123698000Y-88836500D01*
X125389000Y-88848500D02*
X123710000Y-88848500D01*
X125389000Y-88114500D02*
X124904500Y-87630000D01*
X125389000Y-88848500D02*
X125389000Y-88114500D01*
X143903000Y-88785000D02*
X143891000Y-88773000D01*
X145645500Y-88785000D02*
X143903000Y-88785000D01*
X145645500Y-87924000D02*
X145288000Y-87566500D01*
X145645500Y-88785000D02*
X145645500Y-87924000D01*
X127545000Y-93091000D02*
X126365000Y-93091000D01*
X146812000Y-92964000D02*
X146748500Y-92900500D01*
X147928500Y-92964000D02*
X146812000Y-92964000D01*
%TO.N,/VDD*%
X128360000Y-93091000D02*
X129476500Y-93091000D01*
X148743500Y-92964000D02*
X149923500Y-92964000D01*
%TD*%
D17*
%TO.N,/VDD*%
X159360001Y-95860000D02*
X109880000Y-95860000D01*
X109880000Y-91782000D01*
X112621428Y-91782000D01*
X112633688Y-91906482D01*
X112669998Y-92026180D01*
X112728963Y-92136494D01*
X112808315Y-92233185D01*
X112905006Y-92312537D01*
X113015320Y-92371502D01*
X113135018Y-92407812D01*
X113259500Y-92420072D01*
X113823750Y-92417000D01*
X113982500Y-92258250D01*
X113982500Y-91059000D01*
X114236500Y-91059000D01*
X114236500Y-92258250D01*
X114395250Y-92417000D01*
X114959500Y-92420072D01*
X115083982Y-92407812D01*
X115203680Y-92371502D01*
X115313994Y-92312537D01*
X115410685Y-92233185D01*
X115490037Y-92136494D01*
X115549002Y-92026180D01*
X115585312Y-91906482D01*
X115597572Y-91782000D01*
X115594500Y-91217750D01*
X115435750Y-91059000D01*
X114236500Y-91059000D01*
X113982500Y-91059000D01*
X112783250Y-91059000D01*
X112624500Y-91217750D01*
X112621428Y-91782000D01*
X109880000Y-91782000D01*
X109880000Y-90082000D01*
X112621428Y-90082000D01*
X112624500Y-90646250D01*
X112783250Y-90805000D01*
X113982500Y-90805000D01*
X113982500Y-90785000D01*
X114236500Y-90785000D01*
X114236500Y-90805000D01*
X115435750Y-90805000D01*
X115594500Y-90646250D01*
X115597572Y-90082000D01*
X115585312Y-89957518D01*
X115549002Y-89837820D01*
X115490037Y-89727506D01*
X115410685Y-89630815D01*
X115313994Y-89551463D01*
X115203680Y-89492498D01*
X115131120Y-89470487D01*
X115262975Y-89338632D01*
X115387678Y-89152000D01*
X119001699Y-89152000D01*
X120709201Y-90859503D01*
X120732999Y-90888501D01*
X120848724Y-90983474D01*
X120980753Y-91054046D01*
X121124014Y-91097503D01*
X121235667Y-91108500D01*
X121235677Y-91108500D01*
X121273000Y-91112176D01*
X121310323Y-91108500D01*
X123956061Y-91108500D01*
X123958463Y-91112994D01*
X124037815Y-91209685D01*
X124134506Y-91289037D01*
X124244820Y-91348002D01*
X124364518Y-91384312D01*
X124489000Y-91396572D01*
X125600928Y-91396572D01*
X125600928Y-92098500D01*
X125613188Y-92222982D01*
X125649498Y-92342680D01*
X125649537Y-92342752D01*
X125561063Y-92431226D01*
X125447795Y-92600744D01*
X125369774Y-92789102D01*
X125330000Y-92989061D01*
X125330000Y-93192939D01*
X125369774Y-93392898D01*
X125447795Y-93581256D01*
X125561063Y-93750774D01*
X125705226Y-93894937D01*
X125874744Y-94008205D01*
X126063102Y-94086226D01*
X126263061Y-94126000D01*
X126466939Y-94126000D01*
X126666898Y-94086226D01*
X126855256Y-94008205D01*
X127024774Y-93894937D01*
X127046409Y-93873302D01*
X127183509Y-93914890D01*
X127327500Y-93929072D01*
X127762500Y-93929072D01*
X127906491Y-93914890D01*
X127911113Y-93913488D01*
X127933698Y-93919727D01*
X128058447Y-93928873D01*
X128074250Y-93926000D01*
X128233000Y-93767250D01*
X128233000Y-93755075D01*
X128284396Y-93712896D01*
X128376184Y-93601051D01*
X128444390Y-93473448D01*
X128486390Y-93334991D01*
X128487000Y-93328798D01*
X128487000Y-93767250D01*
X128645750Y-93926000D01*
X128661553Y-93928873D01*
X128786302Y-93919727D01*
X128906870Y-93886420D01*
X129018624Y-93830231D01*
X129117268Y-93753320D01*
X129199012Y-93658642D01*
X129260715Y-93549836D01*
X129300005Y-93431083D01*
X129312500Y-93322750D01*
X129153750Y-93164000D01*
X128500572Y-93164000D01*
X128500572Y-93018000D01*
X129153750Y-93018000D01*
X129312500Y-92859250D01*
X129300005Y-92750917D01*
X129295259Y-92736572D01*
X129539000Y-92736572D01*
X129663482Y-92724312D01*
X129783180Y-92688002D01*
X129893494Y-92629037D01*
X129990185Y-92549685D01*
X130069537Y-92452994D01*
X130128502Y-92342680D01*
X130164812Y-92222982D01*
X130177072Y-92098500D01*
X130177072Y-91319678D01*
X130262000Y-91234750D01*
X130262000Y-90475500D01*
X130516000Y-90475500D01*
X130516000Y-91234750D01*
X130674750Y-91393500D01*
X131289000Y-91396572D01*
X131413482Y-91384312D01*
X131533180Y-91348002D01*
X131643494Y-91289037D01*
X131740185Y-91209685D01*
X131819537Y-91112994D01*
X131878502Y-91002680D01*
X131914812Y-90882982D01*
X131927072Y-90758500D01*
X131924000Y-90634250D01*
X131765250Y-90475500D01*
X130516000Y-90475500D01*
X130262000Y-90475500D01*
X130242000Y-90475500D01*
X130242000Y-90221500D01*
X130262000Y-90221500D01*
X130262000Y-90201500D01*
X130516000Y-90201500D01*
X130516000Y-90221500D01*
X131765250Y-90221500D01*
X131924000Y-90062750D01*
X131927072Y-89938500D01*
X131914812Y-89814018D01*
X131878502Y-89694320D01*
X131832630Y-89608500D01*
X136857199Y-89608500D01*
X138044701Y-90796003D01*
X138068499Y-90825001D01*
X138184224Y-90919974D01*
X138316253Y-90990546D01*
X138459514Y-91034003D01*
X138571167Y-91045000D01*
X138571175Y-91045000D01*
X138608500Y-91048676D01*
X138645825Y-91045000D01*
X144212561Y-91045000D01*
X144214963Y-91049494D01*
X144294315Y-91146185D01*
X144391006Y-91225537D01*
X144501320Y-91284502D01*
X144621018Y-91320812D01*
X144745500Y-91333072D01*
X145857428Y-91333072D01*
X145857428Y-92035000D01*
X145869688Y-92159482D01*
X145905998Y-92279180D01*
X145911718Y-92289882D01*
X145831295Y-92410244D01*
X145753274Y-92598602D01*
X145713500Y-92798561D01*
X145713500Y-93002439D01*
X145753274Y-93202398D01*
X145831295Y-93390756D01*
X145944563Y-93560274D01*
X146088726Y-93704437D01*
X146258244Y-93817705D01*
X146446602Y-93895726D01*
X146646561Y-93935500D01*
X146850439Y-93935500D01*
X147050398Y-93895726D01*
X147238756Y-93817705D01*
X147378996Y-93724000D01*
X147387599Y-93724000D01*
X147428552Y-93745890D01*
X147567009Y-93787890D01*
X147711000Y-93802072D01*
X148146000Y-93802072D01*
X148289991Y-93787890D01*
X148294613Y-93786488D01*
X148317198Y-93792727D01*
X148441947Y-93801873D01*
X148457750Y-93799000D01*
X148616500Y-93640250D01*
X148616500Y-93628075D01*
X148667896Y-93585896D01*
X148759684Y-93474051D01*
X148827890Y-93346448D01*
X148869890Y-93207991D01*
X148870500Y-93201798D01*
X148870500Y-93640250D01*
X149029250Y-93799000D01*
X149045053Y-93801873D01*
X149169802Y-93792727D01*
X149290370Y-93759420D01*
X149402124Y-93703231D01*
X149500768Y-93626320D01*
X149582512Y-93531642D01*
X149644215Y-93422836D01*
X149683505Y-93304083D01*
X149696000Y-93195750D01*
X149537250Y-93037000D01*
X148884072Y-93037000D01*
X148884072Y-92891000D01*
X149537250Y-92891000D01*
X149696000Y-92732250D01*
X149689174Y-92673072D01*
X149795500Y-92673072D01*
X149919982Y-92660812D01*
X150039680Y-92624502D01*
X150149994Y-92565537D01*
X150246685Y-92486185D01*
X150326037Y-92389494D01*
X150385002Y-92279180D01*
X150421312Y-92159482D01*
X150433572Y-92035000D01*
X150433572Y-91256178D01*
X150518500Y-91171250D01*
X150518500Y-90412000D01*
X150772500Y-90412000D01*
X150772500Y-91171250D01*
X150931250Y-91330000D01*
X151545500Y-91333072D01*
X151669982Y-91320812D01*
X151789680Y-91284502D01*
X151899994Y-91225537D01*
X151996685Y-91146185D01*
X152076037Y-91049494D01*
X152135002Y-90939180D01*
X152171312Y-90819482D01*
X152183572Y-90695000D01*
X152180500Y-90570750D01*
X152021750Y-90412000D01*
X150772500Y-90412000D01*
X150518500Y-90412000D01*
X150498500Y-90412000D01*
X150498500Y-90158000D01*
X150518500Y-90158000D01*
X150518500Y-90138000D01*
X150772500Y-90138000D01*
X150772500Y-90158000D01*
X152021750Y-90158000D01*
X152180500Y-89999250D01*
X152183572Y-89875000D01*
X152171312Y-89750518D01*
X152135002Y-89630820D01*
X152083784Y-89535000D01*
X152135002Y-89439180D01*
X152171312Y-89319482D01*
X152183572Y-89195000D01*
X152183572Y-88375000D01*
X152171312Y-88250518D01*
X152135002Y-88130820D01*
X152076037Y-88020506D01*
X151996685Y-87923815D01*
X151899994Y-87844463D01*
X151789680Y-87785498D01*
X151669982Y-87749188D01*
X151545500Y-87736928D01*
X150433572Y-87736928D01*
X150433572Y-87035000D01*
X150421312Y-86910518D01*
X150385002Y-86790820D01*
X150326037Y-86680506D01*
X150246685Y-86583815D01*
X150149994Y-86504463D01*
X150039680Y-86445498D01*
X149919982Y-86409188D01*
X149901578Y-86407375D01*
X150067738Y-86241215D01*
X150356107Y-85809641D01*
X150554739Y-85330101D01*
X150656000Y-84821025D01*
X150656000Y-84415240D01*
X151616000Y-84415240D01*
X151616000Y-84707760D01*
X151673068Y-84994658D01*
X151785010Y-85264911D01*
X151947525Y-85508132D01*
X152154368Y-85714975D01*
X152397589Y-85877490D01*
X152667842Y-85989432D01*
X152954740Y-86046500D01*
X153247260Y-86046500D01*
X153534158Y-85989432D01*
X153804411Y-85877490D01*
X154047632Y-85714975D01*
X154254475Y-85508132D01*
X154416990Y-85264911D01*
X154528932Y-84994658D01*
X154586000Y-84707760D01*
X154586000Y-84415240D01*
X154528932Y-84128342D01*
X154416990Y-83858089D01*
X154254475Y-83614868D01*
X154047632Y-83408025D01*
X153804411Y-83245510D01*
X153534158Y-83133568D01*
X153247260Y-83076500D01*
X152954740Y-83076500D01*
X152667842Y-83133568D01*
X152397589Y-83245510D01*
X152154368Y-83408025D01*
X151947525Y-83614868D01*
X151785010Y-83858089D01*
X151673068Y-84128342D01*
X151616000Y-84415240D01*
X150656000Y-84415240D01*
X150656000Y-84301975D01*
X150554739Y-83792899D01*
X150356107Y-83313359D01*
X150067738Y-82881785D01*
X149700715Y-82514762D01*
X149269141Y-82226393D01*
X148789601Y-82027761D01*
X148280525Y-81926500D01*
X147761475Y-81926500D01*
X147252399Y-82027761D01*
X146772859Y-82226393D01*
X146341285Y-82514762D01*
X145974262Y-82881785D01*
X145685893Y-83313359D01*
X145487261Y-83792899D01*
X145386000Y-84301975D01*
X145386000Y-84821025D01*
X145487261Y-85330101D01*
X145685893Y-85809641D01*
X145974262Y-86241215D01*
X146203895Y-86470848D01*
X146141006Y-86504463D01*
X146044315Y-86583815D01*
X145964963Y-86680506D01*
X145928121Y-86749431D01*
X145778256Y-86649295D01*
X145589898Y-86571274D01*
X145389939Y-86531500D01*
X145186061Y-86531500D01*
X144986102Y-86571274D01*
X144797744Y-86649295D01*
X144628226Y-86762563D01*
X144484063Y-86906726D01*
X144370795Y-87076244D01*
X144292774Y-87264602D01*
X144253000Y-87464561D01*
X144253000Y-87668439D01*
X144282097Y-87814722D01*
X144192898Y-87777774D01*
X143992939Y-87738000D01*
X143789061Y-87738000D01*
X143589102Y-87777774D01*
X143400744Y-87855795D01*
X143231226Y-87969063D01*
X143087063Y-88113226D01*
X142973795Y-88282744D01*
X142895774Y-88471102D01*
X142856000Y-88671061D01*
X142856000Y-88874939D01*
X142895774Y-89074898D01*
X142973795Y-89263256D01*
X143087063Y-89432774D01*
X143179289Y-89525000D01*
X138923302Y-89525000D01*
X137735804Y-88337503D01*
X137712001Y-88308499D01*
X137596276Y-88213526D01*
X137464247Y-88142954D01*
X137320986Y-88099497D01*
X137209333Y-88088500D01*
X137209322Y-88088500D01*
X137172000Y-88084824D01*
X137134678Y-88088500D01*
X131821939Y-88088500D01*
X131819537Y-88084006D01*
X131740185Y-87987315D01*
X131643494Y-87907963D01*
X131533180Y-87848998D01*
X131413482Y-87812688D01*
X131289000Y-87800428D01*
X130177072Y-87800428D01*
X130177072Y-87098500D01*
X130164812Y-86974018D01*
X130128502Y-86854320D01*
X130069537Y-86744006D01*
X129990185Y-86647315D01*
X129893494Y-86567963D01*
X129783180Y-86508998D01*
X129663482Y-86472688D01*
X129638705Y-86470248D01*
X129867738Y-86241215D01*
X130156107Y-85809641D01*
X130354739Y-85330101D01*
X130456000Y-84821025D01*
X130456000Y-84415240D01*
X131416000Y-84415240D01*
X131416000Y-84707760D01*
X131473068Y-84994658D01*
X131585010Y-85264911D01*
X131747525Y-85508132D01*
X131954368Y-85714975D01*
X132197589Y-85877490D01*
X132467842Y-85989432D01*
X132754740Y-86046500D01*
X133047260Y-86046500D01*
X133334158Y-85989432D01*
X133604411Y-85877490D01*
X133847632Y-85714975D01*
X134054475Y-85508132D01*
X134216990Y-85264911D01*
X134328932Y-84994658D01*
X134386000Y-84707760D01*
X134386000Y-84415240D01*
X134328932Y-84128342D01*
X134216990Y-83858089D01*
X134054475Y-83614868D01*
X133847632Y-83408025D01*
X133604411Y-83245510D01*
X133334158Y-83133568D01*
X133047260Y-83076500D01*
X132754740Y-83076500D01*
X132467842Y-83133568D01*
X132197589Y-83245510D01*
X131954368Y-83408025D01*
X131747525Y-83614868D01*
X131585010Y-83858089D01*
X131473068Y-84128342D01*
X131416000Y-84415240D01*
X130456000Y-84415240D01*
X130456000Y-84301975D01*
X130354739Y-83792899D01*
X130156107Y-83313359D01*
X129867738Y-82881785D01*
X129500715Y-82514762D01*
X129069141Y-82226393D01*
X128589601Y-82027761D01*
X128080525Y-81926500D01*
X127561475Y-81926500D01*
X127052399Y-82027761D01*
X126572859Y-82226393D01*
X126141285Y-82514762D01*
X125774262Y-82881785D01*
X125485893Y-83313359D01*
X125287261Y-83792899D01*
X125186000Y-84301975D01*
X125186000Y-84821025D01*
X125287261Y-85330101D01*
X125485893Y-85809641D01*
X125774262Y-86241215D01*
X126031054Y-86498007D01*
X125994820Y-86508998D01*
X125884506Y-86567963D01*
X125787815Y-86647315D01*
X125708463Y-86744006D01*
X125649498Y-86854320D01*
X125636239Y-86898028D01*
X125564274Y-86826063D01*
X125394756Y-86712795D01*
X125206398Y-86634774D01*
X125006439Y-86595000D01*
X124802561Y-86595000D01*
X124602602Y-86634774D01*
X124414244Y-86712795D01*
X124244726Y-86826063D01*
X124100563Y-86970226D01*
X123987295Y-87139744D01*
X123909274Y-87328102D01*
X123869500Y-87528061D01*
X123869500Y-87731939D01*
X123886772Y-87818772D01*
X123799939Y-87801500D01*
X123596061Y-87801500D01*
X123396102Y-87841274D01*
X123207744Y-87919295D01*
X123038226Y-88032563D01*
X122894063Y-88176726D01*
X122780795Y-88346244D01*
X122702774Y-88534602D01*
X122663000Y-88734561D01*
X122663000Y-88938439D01*
X122702774Y-89138398D01*
X122780795Y-89326756D01*
X122894063Y-89496274D01*
X122986289Y-89588500D01*
X121587802Y-89588500D01*
X119880304Y-87881003D01*
X119856501Y-87851999D01*
X119740776Y-87757026D01*
X119608747Y-87686454D01*
X119465486Y-87642997D01*
X119353833Y-87632000D01*
X119353822Y-87632000D01*
X119316500Y-87628324D01*
X119279178Y-87632000D01*
X115387678Y-87632000D01*
X115262975Y-87445368D01*
X115056132Y-87238525D01*
X114881740Y-87122000D01*
X115056132Y-87005475D01*
X115262975Y-86798632D01*
X115425490Y-86555411D01*
X115537432Y-86285158D01*
X115594500Y-85998260D01*
X115594500Y-85705740D01*
X115537432Y-85418842D01*
X115425490Y-85148589D01*
X115262975Y-84905368D01*
X115056132Y-84698525D01*
X114881740Y-84582000D01*
X115056132Y-84465475D01*
X115106367Y-84415240D01*
X121256000Y-84415240D01*
X121256000Y-84707760D01*
X121313068Y-84994658D01*
X121425010Y-85264911D01*
X121587525Y-85508132D01*
X121794368Y-85714975D01*
X122037589Y-85877490D01*
X122307842Y-85989432D01*
X122594740Y-86046500D01*
X122887260Y-86046500D01*
X123174158Y-85989432D01*
X123444411Y-85877490D01*
X123687632Y-85714975D01*
X123894475Y-85508132D01*
X124056990Y-85264911D01*
X124168932Y-84994658D01*
X124226000Y-84707760D01*
X124226000Y-84415240D01*
X124168932Y-84128342D01*
X124056990Y-83858089D01*
X123989110Y-83756500D01*
X124181883Y-83756500D01*
X124517081Y-83689825D01*
X124832831Y-83559037D01*
X125116998Y-83369163D01*
X125358663Y-83127498D01*
X125548537Y-82843331D01*
X125679325Y-82527581D01*
X125746000Y-82192383D01*
X125746000Y-81850617D01*
X125733147Y-81786000D01*
X142488853Y-81786000D01*
X142476000Y-81850617D01*
X142476000Y-82192383D01*
X142542675Y-82527581D01*
X142673463Y-82843331D01*
X142829261Y-83076500D01*
X142794740Y-83076500D01*
X142507842Y-83133568D01*
X142237589Y-83245510D01*
X141994368Y-83408025D01*
X141787525Y-83614868D01*
X141625010Y-83858089D01*
X141513068Y-84128342D01*
X141456000Y-84415240D01*
X141456000Y-84707760D01*
X141513068Y-84994658D01*
X141625010Y-85264911D01*
X141787525Y-85508132D01*
X141994368Y-85714975D01*
X142237589Y-85877490D01*
X142507842Y-85989432D01*
X142794740Y-86046500D01*
X143087260Y-86046500D01*
X143374158Y-85989432D01*
X143644411Y-85877490D01*
X143887632Y-85714975D01*
X144094475Y-85508132D01*
X144256990Y-85264911D01*
X144368932Y-84994658D01*
X144426000Y-84707760D01*
X144426000Y-84415240D01*
X144368932Y-84128342D01*
X144256990Y-83858089D01*
X144189110Y-83756500D01*
X144381883Y-83756500D01*
X144717081Y-83689825D01*
X145032831Y-83559037D01*
X145316998Y-83369163D01*
X145558663Y-83127498D01*
X145748537Y-82843331D01*
X145879325Y-82527581D01*
X145946000Y-82192383D01*
X145946000Y-81850617D01*
X145879325Y-81515419D01*
X145748537Y-81199669D01*
X145558663Y-80915502D01*
X145316998Y-80673837D01*
X145032831Y-80483963D01*
X144717081Y-80353175D01*
X144381883Y-80286500D01*
X144040117Y-80286500D01*
X143704919Y-80353175D01*
X143628321Y-80384903D01*
X143507747Y-80320454D01*
X143364486Y-80276997D01*
X143252833Y-80266000D01*
X143252822Y-80266000D01*
X143215500Y-80262324D01*
X143178178Y-80266000D01*
X131914000Y-80266000D01*
X132029325Y-79987581D01*
X132096000Y-79652383D01*
X132096000Y-79310617D01*
X132029325Y-78975419D01*
X131898537Y-78659669D01*
X131708663Y-78375502D01*
X131466998Y-78133837D01*
X131182831Y-77943963D01*
X130867081Y-77813175D01*
X130531883Y-77746500D01*
X130190117Y-77746500D01*
X129854919Y-77813175D01*
X129539169Y-77943963D01*
X129255002Y-78133837D01*
X129013337Y-78375502D01*
X128823463Y-78659669D01*
X128692675Y-78975419D01*
X128626000Y-79310617D01*
X128626000Y-79652383D01*
X128692675Y-79987581D01*
X128808000Y-80266000D01*
X125043833Y-80266000D01*
X125006500Y-80262323D01*
X124969167Y-80266000D01*
X124857514Y-80276997D01*
X124714253Y-80320454D01*
X124593679Y-80384903D01*
X124517081Y-80353175D01*
X124181883Y-80286500D01*
X123840117Y-80286500D01*
X123504919Y-80353175D01*
X123189169Y-80483963D01*
X122905002Y-80673837D01*
X122663337Y-80915502D01*
X122473463Y-81199669D01*
X122342675Y-81515419D01*
X122276000Y-81850617D01*
X122276000Y-82192383D01*
X122342675Y-82527581D01*
X122473463Y-82843331D01*
X122629261Y-83076500D01*
X122594740Y-83076500D01*
X122307842Y-83133568D01*
X122037589Y-83245510D01*
X121794368Y-83408025D01*
X121587525Y-83614868D01*
X121425010Y-83858089D01*
X121313068Y-84128342D01*
X121256000Y-84415240D01*
X115106367Y-84415240D01*
X115262975Y-84258632D01*
X115425490Y-84015411D01*
X115537432Y-83745158D01*
X115594500Y-83458260D01*
X115594500Y-83165740D01*
X115537432Y-82878842D01*
X115425490Y-82608589D01*
X115262975Y-82365368D01*
X115056132Y-82158525D01*
X114881740Y-82042000D01*
X115056132Y-81925475D01*
X115262975Y-81718632D01*
X115425490Y-81475411D01*
X115537432Y-81205158D01*
X115594500Y-80918260D01*
X115594500Y-80625740D01*
X115537432Y-80338842D01*
X115425490Y-80068589D01*
X115262975Y-79825368D01*
X115056132Y-79618525D01*
X114881740Y-79502000D01*
X115056132Y-79385475D01*
X115262975Y-79178632D01*
X115387678Y-78992000D01*
X125121178Y-78992000D01*
X125158500Y-78995676D01*
X125195822Y-78992000D01*
X125195833Y-78992000D01*
X125307486Y-78981003D01*
X125450747Y-78937546D01*
X125582776Y-78866974D01*
X125698501Y-78772001D01*
X125722304Y-78742997D01*
X126933802Y-77531500D01*
X147536199Y-77531500D01*
X148918286Y-78913588D01*
X148892675Y-78975419D01*
X148826000Y-79310617D01*
X148826000Y-79652383D01*
X148892675Y-79987581D01*
X149023463Y-80303331D01*
X149213337Y-80587498D01*
X149455002Y-80829163D01*
X149739169Y-81019037D01*
X150054919Y-81149825D01*
X150390117Y-81216500D01*
X150731883Y-81216500D01*
X151067081Y-81149825D01*
X151382831Y-81019037D01*
X151666998Y-80829163D01*
X151908663Y-80587498D01*
X152098537Y-80303331D01*
X152229325Y-79987581D01*
X152296000Y-79652383D01*
X152296000Y-79310617D01*
X152229325Y-78975419D01*
X152098537Y-78659669D01*
X151908663Y-78375502D01*
X151666998Y-78133837D01*
X151382831Y-77943963D01*
X151067081Y-77813175D01*
X150731883Y-77746500D01*
X150390117Y-77746500D01*
X150054919Y-77813175D01*
X149993088Y-77838786D01*
X148414804Y-76260503D01*
X148391001Y-76231499D01*
X148275276Y-76136526D01*
X148143247Y-76065954D01*
X147999986Y-76022497D01*
X147888333Y-76011500D01*
X147888322Y-76011500D01*
X147851000Y-76007824D01*
X147813678Y-76011500D01*
X126656323Y-76011500D01*
X126619000Y-76007824D01*
X126581677Y-76011500D01*
X126581667Y-76011500D01*
X126470014Y-76022497D01*
X126326753Y-76065954D01*
X126194723Y-76136526D01*
X126111083Y-76205168D01*
X126078999Y-76231499D01*
X126055201Y-76260497D01*
X124843699Y-77472000D01*
X115387678Y-77472000D01*
X115262975Y-77285368D01*
X115056132Y-77078525D01*
X114812911Y-76916010D01*
X114542658Y-76804068D01*
X114255760Y-76747000D01*
X113963240Y-76747000D01*
X113676342Y-76804068D01*
X113406089Y-76916010D01*
X113162868Y-77078525D01*
X112956025Y-77285368D01*
X112793510Y-77528589D01*
X112681568Y-77798842D01*
X112624500Y-78085740D01*
X112624500Y-78378260D01*
X112681568Y-78665158D01*
X112793510Y-78935411D01*
X112956025Y-79178632D01*
X113162868Y-79385475D01*
X113337260Y-79502000D01*
X113162868Y-79618525D01*
X112956025Y-79825368D01*
X112793510Y-80068589D01*
X112681568Y-80338842D01*
X112624500Y-80625740D01*
X112624500Y-80918260D01*
X112681568Y-81205158D01*
X112793510Y-81475411D01*
X112956025Y-81718632D01*
X113162868Y-81925475D01*
X113337260Y-82042000D01*
X113162868Y-82158525D01*
X112956025Y-82365368D01*
X112793510Y-82608589D01*
X112681568Y-82878842D01*
X112624500Y-83165740D01*
X112624500Y-83458260D01*
X112681568Y-83745158D01*
X112793510Y-84015411D01*
X112956025Y-84258632D01*
X113162868Y-84465475D01*
X113337260Y-84582000D01*
X113162868Y-84698525D01*
X112956025Y-84905368D01*
X112793510Y-85148589D01*
X112681568Y-85418842D01*
X112624500Y-85705740D01*
X112624500Y-85998260D01*
X112681568Y-86285158D01*
X112793510Y-86555411D01*
X112956025Y-86798632D01*
X113162868Y-87005475D01*
X113337260Y-87122000D01*
X113162868Y-87238525D01*
X112956025Y-87445368D01*
X112793510Y-87688589D01*
X112681568Y-87958842D01*
X112624500Y-88245740D01*
X112624500Y-88538260D01*
X112681568Y-88825158D01*
X112793510Y-89095411D01*
X112956025Y-89338632D01*
X113087880Y-89470487D01*
X113015320Y-89492498D01*
X112905006Y-89551463D01*
X112808315Y-89630815D01*
X112728963Y-89727506D01*
X112669998Y-89837820D01*
X112633688Y-89957518D01*
X112621428Y-90082000D01*
X109880000Y-90082000D01*
X109880000Y-74320000D01*
X159360000Y-74320000D01*
X159360001Y-95860000D01*
%TA.AperFunction,Conductor*%
D18*
G36*
X159360001Y-95860000D02*
G01*
X109880000Y-95860000D01*
X109880000Y-91782000D01*
X112621428Y-91782000D01*
X112633688Y-91906482D01*
X112669998Y-92026180D01*
X112728963Y-92136494D01*
X112808315Y-92233185D01*
X112905006Y-92312537D01*
X113015320Y-92371502D01*
X113135018Y-92407812D01*
X113259500Y-92420072D01*
X113823750Y-92417000D01*
X113982500Y-92258250D01*
X113982500Y-91059000D01*
X114236500Y-91059000D01*
X114236500Y-92258250D01*
X114395250Y-92417000D01*
X114959500Y-92420072D01*
X115083982Y-92407812D01*
X115203680Y-92371502D01*
X115313994Y-92312537D01*
X115410685Y-92233185D01*
X115490037Y-92136494D01*
X115549002Y-92026180D01*
X115585312Y-91906482D01*
X115597572Y-91782000D01*
X115594500Y-91217750D01*
X115435750Y-91059000D01*
X114236500Y-91059000D01*
X113982500Y-91059000D01*
X112783250Y-91059000D01*
X112624500Y-91217750D01*
X112621428Y-91782000D01*
X109880000Y-91782000D01*
X109880000Y-90082000D01*
X112621428Y-90082000D01*
X112624500Y-90646250D01*
X112783250Y-90805000D01*
X113982500Y-90805000D01*
X113982500Y-90785000D01*
X114236500Y-90785000D01*
X114236500Y-90805000D01*
X115435750Y-90805000D01*
X115594500Y-90646250D01*
X115597572Y-90082000D01*
X115585312Y-89957518D01*
X115549002Y-89837820D01*
X115490037Y-89727506D01*
X115410685Y-89630815D01*
X115313994Y-89551463D01*
X115203680Y-89492498D01*
X115131120Y-89470487D01*
X115262975Y-89338632D01*
X115387678Y-89152000D01*
X119001699Y-89152000D01*
X120709201Y-90859503D01*
X120732999Y-90888501D01*
X120848724Y-90983474D01*
X120980753Y-91054046D01*
X121124014Y-91097503D01*
X121235667Y-91108500D01*
X121235677Y-91108500D01*
X121273000Y-91112176D01*
X121310323Y-91108500D01*
X123956061Y-91108500D01*
X123958463Y-91112994D01*
X124037815Y-91209685D01*
X124134506Y-91289037D01*
X124244820Y-91348002D01*
X124364518Y-91384312D01*
X124489000Y-91396572D01*
X125600928Y-91396572D01*
X125600928Y-92098500D01*
X125613188Y-92222982D01*
X125649498Y-92342680D01*
X125649537Y-92342752D01*
X125561063Y-92431226D01*
X125447795Y-92600744D01*
X125369774Y-92789102D01*
X125330000Y-92989061D01*
X125330000Y-93192939D01*
X125369774Y-93392898D01*
X125447795Y-93581256D01*
X125561063Y-93750774D01*
X125705226Y-93894937D01*
X125874744Y-94008205D01*
X126063102Y-94086226D01*
X126263061Y-94126000D01*
X126466939Y-94126000D01*
X126666898Y-94086226D01*
X126855256Y-94008205D01*
X127024774Y-93894937D01*
X127046409Y-93873302D01*
X127183509Y-93914890D01*
X127327500Y-93929072D01*
X127762500Y-93929072D01*
X127906491Y-93914890D01*
X127911113Y-93913488D01*
X127933698Y-93919727D01*
X128058447Y-93928873D01*
X128074250Y-93926000D01*
X128233000Y-93767250D01*
X128233000Y-93755075D01*
X128284396Y-93712896D01*
X128376184Y-93601051D01*
X128444390Y-93473448D01*
X128486390Y-93334991D01*
X128487000Y-93328798D01*
X128487000Y-93767250D01*
X128645750Y-93926000D01*
X128661553Y-93928873D01*
X128786302Y-93919727D01*
X128906870Y-93886420D01*
X129018624Y-93830231D01*
X129117268Y-93753320D01*
X129199012Y-93658642D01*
X129260715Y-93549836D01*
X129300005Y-93431083D01*
X129312500Y-93322750D01*
X129153750Y-93164000D01*
X128500572Y-93164000D01*
X128500572Y-93018000D01*
X129153750Y-93018000D01*
X129312500Y-92859250D01*
X129300005Y-92750917D01*
X129295259Y-92736572D01*
X129539000Y-92736572D01*
X129663482Y-92724312D01*
X129783180Y-92688002D01*
X129893494Y-92629037D01*
X129990185Y-92549685D01*
X130069537Y-92452994D01*
X130128502Y-92342680D01*
X130164812Y-92222982D01*
X130177072Y-92098500D01*
X130177072Y-91319678D01*
X130262000Y-91234750D01*
X130262000Y-90475500D01*
X130516000Y-90475500D01*
X130516000Y-91234750D01*
X130674750Y-91393500D01*
X131289000Y-91396572D01*
X131413482Y-91384312D01*
X131533180Y-91348002D01*
X131643494Y-91289037D01*
X131740185Y-91209685D01*
X131819537Y-91112994D01*
X131878502Y-91002680D01*
X131914812Y-90882982D01*
X131927072Y-90758500D01*
X131924000Y-90634250D01*
X131765250Y-90475500D01*
X130516000Y-90475500D01*
X130262000Y-90475500D01*
X130242000Y-90475500D01*
X130242000Y-90221500D01*
X130262000Y-90221500D01*
X130262000Y-90201500D01*
X130516000Y-90201500D01*
X130516000Y-90221500D01*
X131765250Y-90221500D01*
X131924000Y-90062750D01*
X131927072Y-89938500D01*
X131914812Y-89814018D01*
X131878502Y-89694320D01*
X131832630Y-89608500D01*
X136857199Y-89608500D01*
X138044701Y-90796003D01*
X138068499Y-90825001D01*
X138184224Y-90919974D01*
X138316253Y-90990546D01*
X138459514Y-91034003D01*
X138571167Y-91045000D01*
X138571175Y-91045000D01*
X138608500Y-91048676D01*
X138645825Y-91045000D01*
X144212561Y-91045000D01*
X144214963Y-91049494D01*
X144294315Y-91146185D01*
X144391006Y-91225537D01*
X144501320Y-91284502D01*
X144621018Y-91320812D01*
X144745500Y-91333072D01*
X145857428Y-91333072D01*
X145857428Y-92035000D01*
X145869688Y-92159482D01*
X145905998Y-92279180D01*
X145911718Y-92289882D01*
X145831295Y-92410244D01*
X145753274Y-92598602D01*
X145713500Y-92798561D01*
X145713500Y-93002439D01*
X145753274Y-93202398D01*
X145831295Y-93390756D01*
X145944563Y-93560274D01*
X146088726Y-93704437D01*
X146258244Y-93817705D01*
X146446602Y-93895726D01*
X146646561Y-93935500D01*
X146850439Y-93935500D01*
X147050398Y-93895726D01*
X147238756Y-93817705D01*
X147378996Y-93724000D01*
X147387599Y-93724000D01*
X147428552Y-93745890D01*
X147567009Y-93787890D01*
X147711000Y-93802072D01*
X148146000Y-93802072D01*
X148289991Y-93787890D01*
X148294613Y-93786488D01*
X148317198Y-93792727D01*
X148441947Y-93801873D01*
X148457750Y-93799000D01*
X148616500Y-93640250D01*
X148616500Y-93628075D01*
X148667896Y-93585896D01*
X148759684Y-93474051D01*
X148827890Y-93346448D01*
X148869890Y-93207991D01*
X148870500Y-93201798D01*
X148870500Y-93640250D01*
X149029250Y-93799000D01*
X149045053Y-93801873D01*
X149169802Y-93792727D01*
X149290370Y-93759420D01*
X149402124Y-93703231D01*
X149500768Y-93626320D01*
X149582512Y-93531642D01*
X149644215Y-93422836D01*
X149683505Y-93304083D01*
X149696000Y-93195750D01*
X149537250Y-93037000D01*
X148884072Y-93037000D01*
X148884072Y-92891000D01*
X149537250Y-92891000D01*
X149696000Y-92732250D01*
X149689174Y-92673072D01*
X149795500Y-92673072D01*
X149919982Y-92660812D01*
X150039680Y-92624502D01*
X150149994Y-92565537D01*
X150246685Y-92486185D01*
X150326037Y-92389494D01*
X150385002Y-92279180D01*
X150421312Y-92159482D01*
X150433572Y-92035000D01*
X150433572Y-91256178D01*
X150518500Y-91171250D01*
X150518500Y-90412000D01*
X150772500Y-90412000D01*
X150772500Y-91171250D01*
X150931250Y-91330000D01*
X151545500Y-91333072D01*
X151669982Y-91320812D01*
X151789680Y-91284502D01*
X151899994Y-91225537D01*
X151996685Y-91146185D01*
X152076037Y-91049494D01*
X152135002Y-90939180D01*
X152171312Y-90819482D01*
X152183572Y-90695000D01*
X152180500Y-90570750D01*
X152021750Y-90412000D01*
X150772500Y-90412000D01*
X150518500Y-90412000D01*
X150498500Y-90412000D01*
X150498500Y-90158000D01*
X150518500Y-90158000D01*
X150518500Y-90138000D01*
X150772500Y-90138000D01*
X150772500Y-90158000D01*
X152021750Y-90158000D01*
X152180500Y-89999250D01*
X152183572Y-89875000D01*
X152171312Y-89750518D01*
X152135002Y-89630820D01*
X152083784Y-89535000D01*
X152135002Y-89439180D01*
X152171312Y-89319482D01*
X152183572Y-89195000D01*
X152183572Y-88375000D01*
X152171312Y-88250518D01*
X152135002Y-88130820D01*
X152076037Y-88020506D01*
X151996685Y-87923815D01*
X151899994Y-87844463D01*
X151789680Y-87785498D01*
X151669982Y-87749188D01*
X151545500Y-87736928D01*
X150433572Y-87736928D01*
X150433572Y-87035000D01*
X150421312Y-86910518D01*
X150385002Y-86790820D01*
X150326037Y-86680506D01*
X150246685Y-86583815D01*
X150149994Y-86504463D01*
X150039680Y-86445498D01*
X149919982Y-86409188D01*
X149901578Y-86407375D01*
X150067738Y-86241215D01*
X150356107Y-85809641D01*
X150554739Y-85330101D01*
X150656000Y-84821025D01*
X150656000Y-84415240D01*
X151616000Y-84415240D01*
X151616000Y-84707760D01*
X151673068Y-84994658D01*
X151785010Y-85264911D01*
X151947525Y-85508132D01*
X152154368Y-85714975D01*
X152397589Y-85877490D01*
X152667842Y-85989432D01*
X152954740Y-86046500D01*
X153247260Y-86046500D01*
X153534158Y-85989432D01*
X153804411Y-85877490D01*
X154047632Y-85714975D01*
X154254475Y-85508132D01*
X154416990Y-85264911D01*
X154528932Y-84994658D01*
X154586000Y-84707760D01*
X154586000Y-84415240D01*
X154528932Y-84128342D01*
X154416990Y-83858089D01*
X154254475Y-83614868D01*
X154047632Y-83408025D01*
X153804411Y-83245510D01*
X153534158Y-83133568D01*
X153247260Y-83076500D01*
X152954740Y-83076500D01*
X152667842Y-83133568D01*
X152397589Y-83245510D01*
X152154368Y-83408025D01*
X151947525Y-83614868D01*
X151785010Y-83858089D01*
X151673068Y-84128342D01*
X151616000Y-84415240D01*
X150656000Y-84415240D01*
X150656000Y-84301975D01*
X150554739Y-83792899D01*
X150356107Y-83313359D01*
X150067738Y-82881785D01*
X149700715Y-82514762D01*
X149269141Y-82226393D01*
X148789601Y-82027761D01*
X148280525Y-81926500D01*
X147761475Y-81926500D01*
X147252399Y-82027761D01*
X146772859Y-82226393D01*
X146341285Y-82514762D01*
X145974262Y-82881785D01*
X145685893Y-83313359D01*
X145487261Y-83792899D01*
X145386000Y-84301975D01*
X145386000Y-84821025D01*
X145487261Y-85330101D01*
X145685893Y-85809641D01*
X145974262Y-86241215D01*
X146203895Y-86470848D01*
X146141006Y-86504463D01*
X146044315Y-86583815D01*
X145964963Y-86680506D01*
X145928121Y-86749431D01*
X145778256Y-86649295D01*
X145589898Y-86571274D01*
X145389939Y-86531500D01*
X145186061Y-86531500D01*
X144986102Y-86571274D01*
X144797744Y-86649295D01*
X144628226Y-86762563D01*
X144484063Y-86906726D01*
X144370795Y-87076244D01*
X144292774Y-87264602D01*
X144253000Y-87464561D01*
X144253000Y-87668439D01*
X144282097Y-87814722D01*
X144192898Y-87777774D01*
X143992939Y-87738000D01*
X143789061Y-87738000D01*
X143589102Y-87777774D01*
X143400744Y-87855795D01*
X143231226Y-87969063D01*
X143087063Y-88113226D01*
X142973795Y-88282744D01*
X142895774Y-88471102D01*
X142856000Y-88671061D01*
X142856000Y-88874939D01*
X142895774Y-89074898D01*
X142973795Y-89263256D01*
X143087063Y-89432774D01*
X143179289Y-89525000D01*
X138923302Y-89525000D01*
X137735804Y-88337503D01*
X137712001Y-88308499D01*
X137596276Y-88213526D01*
X137464247Y-88142954D01*
X137320986Y-88099497D01*
X137209333Y-88088500D01*
X137209322Y-88088500D01*
X137172000Y-88084824D01*
X137134678Y-88088500D01*
X131821939Y-88088500D01*
X131819537Y-88084006D01*
X131740185Y-87987315D01*
X131643494Y-87907963D01*
X131533180Y-87848998D01*
X131413482Y-87812688D01*
X131289000Y-87800428D01*
X130177072Y-87800428D01*
X130177072Y-87098500D01*
X130164812Y-86974018D01*
X130128502Y-86854320D01*
X130069537Y-86744006D01*
X129990185Y-86647315D01*
X129893494Y-86567963D01*
X129783180Y-86508998D01*
X129663482Y-86472688D01*
X129638705Y-86470248D01*
X129867738Y-86241215D01*
X130156107Y-85809641D01*
X130354739Y-85330101D01*
X130456000Y-84821025D01*
X130456000Y-84415240D01*
X131416000Y-84415240D01*
X131416000Y-84707760D01*
X131473068Y-84994658D01*
X131585010Y-85264911D01*
X131747525Y-85508132D01*
X131954368Y-85714975D01*
X132197589Y-85877490D01*
X132467842Y-85989432D01*
X132754740Y-86046500D01*
X133047260Y-86046500D01*
X133334158Y-85989432D01*
X133604411Y-85877490D01*
X133847632Y-85714975D01*
X134054475Y-85508132D01*
X134216990Y-85264911D01*
X134328932Y-84994658D01*
X134386000Y-84707760D01*
X134386000Y-84415240D01*
X134328932Y-84128342D01*
X134216990Y-83858089D01*
X134054475Y-83614868D01*
X133847632Y-83408025D01*
X133604411Y-83245510D01*
X133334158Y-83133568D01*
X133047260Y-83076500D01*
X132754740Y-83076500D01*
X132467842Y-83133568D01*
X132197589Y-83245510D01*
X131954368Y-83408025D01*
X131747525Y-83614868D01*
X131585010Y-83858089D01*
X131473068Y-84128342D01*
X131416000Y-84415240D01*
X130456000Y-84415240D01*
X130456000Y-84301975D01*
X130354739Y-83792899D01*
X130156107Y-83313359D01*
X129867738Y-82881785D01*
X129500715Y-82514762D01*
X129069141Y-82226393D01*
X128589601Y-82027761D01*
X128080525Y-81926500D01*
X127561475Y-81926500D01*
X127052399Y-82027761D01*
X126572859Y-82226393D01*
X126141285Y-82514762D01*
X125774262Y-82881785D01*
X125485893Y-83313359D01*
X125287261Y-83792899D01*
X125186000Y-84301975D01*
X125186000Y-84821025D01*
X125287261Y-85330101D01*
X125485893Y-85809641D01*
X125774262Y-86241215D01*
X126031054Y-86498007D01*
X125994820Y-86508998D01*
X125884506Y-86567963D01*
X125787815Y-86647315D01*
X125708463Y-86744006D01*
X125649498Y-86854320D01*
X125636239Y-86898028D01*
X125564274Y-86826063D01*
X125394756Y-86712795D01*
X125206398Y-86634774D01*
X125006439Y-86595000D01*
X124802561Y-86595000D01*
X124602602Y-86634774D01*
X124414244Y-86712795D01*
X124244726Y-86826063D01*
X124100563Y-86970226D01*
X123987295Y-87139744D01*
X123909274Y-87328102D01*
X123869500Y-87528061D01*
X123869500Y-87731939D01*
X123886772Y-87818772D01*
X123799939Y-87801500D01*
X123596061Y-87801500D01*
X123396102Y-87841274D01*
X123207744Y-87919295D01*
X123038226Y-88032563D01*
X122894063Y-88176726D01*
X122780795Y-88346244D01*
X122702774Y-88534602D01*
X122663000Y-88734561D01*
X122663000Y-88938439D01*
X122702774Y-89138398D01*
X122780795Y-89326756D01*
X122894063Y-89496274D01*
X122986289Y-89588500D01*
X121587802Y-89588500D01*
X119880304Y-87881003D01*
X119856501Y-87851999D01*
X119740776Y-87757026D01*
X119608747Y-87686454D01*
X119465486Y-87642997D01*
X119353833Y-87632000D01*
X119353822Y-87632000D01*
X119316500Y-87628324D01*
X119279178Y-87632000D01*
X115387678Y-87632000D01*
X115262975Y-87445368D01*
X115056132Y-87238525D01*
X114881740Y-87122000D01*
X115056132Y-87005475D01*
X115262975Y-86798632D01*
X115425490Y-86555411D01*
X115537432Y-86285158D01*
X115594500Y-85998260D01*
X115594500Y-85705740D01*
X115537432Y-85418842D01*
X115425490Y-85148589D01*
X115262975Y-84905368D01*
X115056132Y-84698525D01*
X114881740Y-84582000D01*
X115056132Y-84465475D01*
X115106367Y-84415240D01*
X121256000Y-84415240D01*
X121256000Y-84707760D01*
X121313068Y-84994658D01*
X121425010Y-85264911D01*
X121587525Y-85508132D01*
X121794368Y-85714975D01*
X122037589Y-85877490D01*
X122307842Y-85989432D01*
X122594740Y-86046500D01*
X122887260Y-86046500D01*
X123174158Y-85989432D01*
X123444411Y-85877490D01*
X123687632Y-85714975D01*
X123894475Y-85508132D01*
X124056990Y-85264911D01*
X124168932Y-84994658D01*
X124226000Y-84707760D01*
X124226000Y-84415240D01*
X124168932Y-84128342D01*
X124056990Y-83858089D01*
X123989110Y-83756500D01*
X124181883Y-83756500D01*
X124517081Y-83689825D01*
X124832831Y-83559037D01*
X125116998Y-83369163D01*
X125358663Y-83127498D01*
X125548537Y-82843331D01*
X125679325Y-82527581D01*
X125746000Y-82192383D01*
X125746000Y-81850617D01*
X125733147Y-81786000D01*
X142488853Y-81786000D01*
X142476000Y-81850617D01*
X142476000Y-82192383D01*
X142542675Y-82527581D01*
X142673463Y-82843331D01*
X142829261Y-83076500D01*
X142794740Y-83076500D01*
X142507842Y-83133568D01*
X142237589Y-83245510D01*
X141994368Y-83408025D01*
X141787525Y-83614868D01*
X141625010Y-83858089D01*
X141513068Y-84128342D01*
X141456000Y-84415240D01*
X141456000Y-84707760D01*
X141513068Y-84994658D01*
X141625010Y-85264911D01*
X141787525Y-85508132D01*
X141994368Y-85714975D01*
X142237589Y-85877490D01*
X142507842Y-85989432D01*
X142794740Y-86046500D01*
X143087260Y-86046500D01*
X143374158Y-85989432D01*
X143644411Y-85877490D01*
X143887632Y-85714975D01*
X144094475Y-85508132D01*
X144256990Y-85264911D01*
X144368932Y-84994658D01*
X144426000Y-84707760D01*
X144426000Y-84415240D01*
X144368932Y-84128342D01*
X144256990Y-83858089D01*
X144189110Y-83756500D01*
X144381883Y-83756500D01*
X144717081Y-83689825D01*
X145032831Y-83559037D01*
X145316998Y-83369163D01*
X145558663Y-83127498D01*
X145748537Y-82843331D01*
X145879325Y-82527581D01*
X145946000Y-82192383D01*
X145946000Y-81850617D01*
X145879325Y-81515419D01*
X145748537Y-81199669D01*
X145558663Y-80915502D01*
X145316998Y-80673837D01*
X145032831Y-80483963D01*
X144717081Y-80353175D01*
X144381883Y-80286500D01*
X144040117Y-80286500D01*
X143704919Y-80353175D01*
X143628321Y-80384903D01*
X143507747Y-80320454D01*
X143364486Y-80276997D01*
X143252833Y-80266000D01*
X143252822Y-80266000D01*
X143215500Y-80262324D01*
X143178178Y-80266000D01*
X131914000Y-80266000D01*
X132029325Y-79987581D01*
X132096000Y-79652383D01*
X132096000Y-79310617D01*
X132029325Y-78975419D01*
X131898537Y-78659669D01*
X131708663Y-78375502D01*
X131466998Y-78133837D01*
X131182831Y-77943963D01*
X130867081Y-77813175D01*
X130531883Y-77746500D01*
X130190117Y-77746500D01*
X129854919Y-77813175D01*
X129539169Y-77943963D01*
X129255002Y-78133837D01*
X129013337Y-78375502D01*
X128823463Y-78659669D01*
X128692675Y-78975419D01*
X128626000Y-79310617D01*
X128626000Y-79652383D01*
X128692675Y-79987581D01*
X128808000Y-80266000D01*
X125043833Y-80266000D01*
X125006500Y-80262323D01*
X124969167Y-80266000D01*
X124857514Y-80276997D01*
X124714253Y-80320454D01*
X124593679Y-80384903D01*
X124517081Y-80353175D01*
X124181883Y-80286500D01*
X123840117Y-80286500D01*
X123504919Y-80353175D01*
X123189169Y-80483963D01*
X122905002Y-80673837D01*
X122663337Y-80915502D01*
X122473463Y-81199669D01*
X122342675Y-81515419D01*
X122276000Y-81850617D01*
X122276000Y-82192383D01*
X122342675Y-82527581D01*
X122473463Y-82843331D01*
X122629261Y-83076500D01*
X122594740Y-83076500D01*
X122307842Y-83133568D01*
X122037589Y-83245510D01*
X121794368Y-83408025D01*
X121587525Y-83614868D01*
X121425010Y-83858089D01*
X121313068Y-84128342D01*
X121256000Y-84415240D01*
X115106367Y-84415240D01*
X115262975Y-84258632D01*
X115425490Y-84015411D01*
X115537432Y-83745158D01*
X115594500Y-83458260D01*
X115594500Y-83165740D01*
X115537432Y-82878842D01*
X115425490Y-82608589D01*
X115262975Y-82365368D01*
X115056132Y-82158525D01*
X114881740Y-82042000D01*
X115056132Y-81925475D01*
X115262975Y-81718632D01*
X115425490Y-81475411D01*
X115537432Y-81205158D01*
X115594500Y-80918260D01*
X115594500Y-80625740D01*
X115537432Y-80338842D01*
X115425490Y-80068589D01*
X115262975Y-79825368D01*
X115056132Y-79618525D01*
X114881740Y-79502000D01*
X115056132Y-79385475D01*
X115262975Y-79178632D01*
X115387678Y-78992000D01*
X125121178Y-78992000D01*
X125158500Y-78995676D01*
X125195822Y-78992000D01*
X125195833Y-78992000D01*
X125307486Y-78981003D01*
X125450747Y-78937546D01*
X125582776Y-78866974D01*
X125698501Y-78772001D01*
X125722304Y-78742997D01*
X126933802Y-77531500D01*
X147536199Y-77531500D01*
X148918286Y-78913588D01*
X148892675Y-78975419D01*
X148826000Y-79310617D01*
X148826000Y-79652383D01*
X148892675Y-79987581D01*
X149023463Y-80303331D01*
X149213337Y-80587498D01*
X149455002Y-80829163D01*
X149739169Y-81019037D01*
X150054919Y-81149825D01*
X150390117Y-81216500D01*
X150731883Y-81216500D01*
X151067081Y-81149825D01*
X151382831Y-81019037D01*
X151666998Y-80829163D01*
X151908663Y-80587498D01*
X152098537Y-80303331D01*
X152229325Y-79987581D01*
X152296000Y-79652383D01*
X152296000Y-79310617D01*
X152229325Y-78975419D01*
X152098537Y-78659669D01*
X151908663Y-78375502D01*
X151666998Y-78133837D01*
X151382831Y-77943963D01*
X151067081Y-77813175D01*
X150731883Y-77746500D01*
X150390117Y-77746500D01*
X150054919Y-77813175D01*
X149993088Y-77838786D01*
X148414804Y-76260503D01*
X148391001Y-76231499D01*
X148275276Y-76136526D01*
X148143247Y-76065954D01*
X147999986Y-76022497D01*
X147888333Y-76011500D01*
X147888322Y-76011500D01*
X147851000Y-76007824D01*
X147813678Y-76011500D01*
X126656323Y-76011500D01*
X126619000Y-76007824D01*
X126581677Y-76011500D01*
X126581667Y-76011500D01*
X126470014Y-76022497D01*
X126326753Y-76065954D01*
X126194723Y-76136526D01*
X126111083Y-76205168D01*
X126078999Y-76231499D01*
X126055201Y-76260497D01*
X124843699Y-77472000D01*
X115387678Y-77472000D01*
X115262975Y-77285368D01*
X115056132Y-77078525D01*
X114812911Y-76916010D01*
X114542658Y-76804068D01*
X114255760Y-76747000D01*
X113963240Y-76747000D01*
X113676342Y-76804068D01*
X113406089Y-76916010D01*
X113162868Y-77078525D01*
X112956025Y-77285368D01*
X112793510Y-77528589D01*
X112681568Y-77798842D01*
X112624500Y-78085740D01*
X112624500Y-78378260D01*
X112681568Y-78665158D01*
X112793510Y-78935411D01*
X112956025Y-79178632D01*
X113162868Y-79385475D01*
X113337260Y-79502000D01*
X113162868Y-79618525D01*
X112956025Y-79825368D01*
X112793510Y-80068589D01*
X112681568Y-80338842D01*
X112624500Y-80625740D01*
X112624500Y-80918260D01*
X112681568Y-81205158D01*
X112793510Y-81475411D01*
X112956025Y-81718632D01*
X113162868Y-81925475D01*
X113337260Y-82042000D01*
X113162868Y-82158525D01*
X112956025Y-82365368D01*
X112793510Y-82608589D01*
X112681568Y-82878842D01*
X112624500Y-83165740D01*
X112624500Y-83458260D01*
X112681568Y-83745158D01*
X112793510Y-84015411D01*
X112956025Y-84258632D01*
X113162868Y-84465475D01*
X113337260Y-84582000D01*
X113162868Y-84698525D01*
X112956025Y-84905368D01*
X112793510Y-85148589D01*
X112681568Y-85418842D01*
X112624500Y-85705740D01*
X112624500Y-85998260D01*
X112681568Y-86285158D01*
X112793510Y-86555411D01*
X112956025Y-86798632D01*
X113162868Y-87005475D01*
X113337260Y-87122000D01*
X113162868Y-87238525D01*
X112956025Y-87445368D01*
X112793510Y-87688589D01*
X112681568Y-87958842D01*
X112624500Y-88245740D01*
X112624500Y-88538260D01*
X112681568Y-88825158D01*
X112793510Y-89095411D01*
X112956025Y-89338632D01*
X113087880Y-89470487D01*
X113015320Y-89492498D01*
X112905006Y-89551463D01*
X112808315Y-89630815D01*
X112728963Y-89727506D01*
X112669998Y-89837820D01*
X112633688Y-89957518D01*
X112621428Y-90082000D01*
X109880000Y-90082000D01*
X109880000Y-74320000D01*
X159360000Y-74320000D01*
X159360001Y-95860000D01*
G37*
%TD.AperFunction*%
%TD*%
M02*
